<?xml version="1.0" encoding="utf-8"?>
<!-- Generator: Adobe Illustrator 21.0.0, SVG Export Plug-In . SVG Version: 6.00 Build 0)  -->
<svg version="1.1" id="Capa_1" xmlns="http://www.w3.org/2000/svg" xmlns:xlink="http://www.w3.org/1999/xlink" x="0px" y="0px"
	 viewBox="0 0 141.7 141.7" style="enable-background:new 0 0 141.7 141.7;" xml:space="preserve">
<style type="text/css">
	.st0{fill:#DB696F;}
	.st1{fill:#515965;}
	.st2{fill:#E3F352;}
	.st3{fill:#F8FF8F;}
	.st4{fill:#7CD7DB;}
	.st5{fill:none;stroke:black;stroke-width:4;stroke-linecap:round;stroke-linejoin:round;stroke-miterlimit:10;}
</style>
<circle class="st0" cx="71" cy="70.5" r="69"/>
<rect x="220.8" y="39" transform="matrix(-1 -1.224647e-16 1.224647e-16 -1 531.158 139.381)" class="st1" width="89.5" height="61.4"/>
<rect x="221.1" y="124.6" transform="matrix(-1 -1.224647e-16 1.224647e-16 -1 531.7561 264.9784)" class="st0" width="89.6" height="15.8"/>
<rect x="220.9" y="140.4" transform="matrix(-1 -1.224647e-16 1.224647e-16 -1 531.3622 296.4905)" class="st2" width="89.6" height="15.8"/>
<rect x="220.9" y="103.1" transform="matrix(-1 -1.224647e-16 1.224647e-16 -1 531.3622 228.3456)" class="st3" width="89.6" height="22.1"/>
<g>
	<g>
		<path class="st4" d="M310.2,73.8c-52.4,2.1-13.3-4.6-22.5-3c-1.8,0.3-6.9,1.3-11.4,1.5c-0.8,0-1.7,0-2.5-0.3
			c-0.8-0.3-1.4-1-1.6-1.8c-0.2-1.2,0.8-2.2,1.8-2.8c1.4-0.9,3.1-1.6,4.7-1.8c-2-0.2-3.9,0.3-5.8,0.9c-4.1,1.3-8,3.3-12,4.9
			c-1.2,0.5-2.5,1-3.8,1.1c-0.5,0-1.2-0.1-1.3-0.6c0-0.2,0-0.4,0.1-0.6c0.3-0.6,0.6-1.2,1-1.7c-1.8,0.7-3.7,2.2-5.9,2.8
			c-1.3,0.4-10.6,4.3-18.8,2.2c-5.2-1.3-11.7,3.4-11.7,3.4l0,0v25.2h89.4c0-8.1,0-17.2,0-25.3C310.1,76.3,310.3,75.4,310.2,73.8z"/>
	</g>
</g>
<g>
	<g>
		<line class="st5" x1="21.7" y1="59.8" x2="39" y2="59.8"/>
		<line class="st5" x1="63.1" y1="59.8" x2="80.4" y2="59.8"/>
	</g>
</g>
<path class="st5" d="M28.2,99.6c5.7-7.2,14.6-11.8,24.5-11.8c10.1,0,19,4.8,24.7,12.1"/>
</svg>
