<?xml version="1.0" encoding="utf-8"?>
<!-- Generator: Adobe Illustrator 21.0.0, SVG Export Plug-In . SVG Version: 6.00 Build 0)  -->
<svg version="1.1" id="Capa_1" xmlns="http://www.w3.org/2000/svg" xmlns:xlink="http://www.w3.org/1999/xlink" x="0px" y="0px"
	 viewBox="0 0 21.2 45.5" style="enable-background:new 0 0 21.2 45.5;" xml:space="preserve">
<style type="text/css">
	.st0{opacity:0.62;}
	.st1{fill:rgba(255, 255, 255, 0.5);}
	.st2{font-family:'Roboto-Regular';}
	.st3{font-size:8.948px;}
</style>
<g id="XMLID_11_" class="st0">
	<text transform="matrix(0.3036 -0.9528 0.9528 0.3036 11.1009 32.2087)" class="st1 st2 st3">Campero</text>
</g>
<g class="st0">
	<g>
		<path class="st1" d="M5.5,43.3c-0.1,0-0.1,0.1-0.2,0.1c-0.4,0.4-0.8,0.8-1.3,1c-0.4,0.1-0.8,0.2-1.1,0c-0.2-0.1-0.5-0.1-0.7-0.2
			c-0.5-0.3-0.8-0.7-1-1.2c-0.4-0.9-0.4-1.8-0.4-2.8c0.1-1.6,0.5-3.1,1.1-4.6c0.5-1.2,1.1-2.2,2-3.1c0.4-0.4,0.9-0.7,1.5-0.9
			c0.3-0.1,0.6-0.1,0.9,0c0.2,0.1,0.5,0.2,0.7,0.3c0.5,0.2,0.8,0.6,1,1.1c0.1,0.2,0.1,0.3,0.2,0.5l0,0c0.1,0.6,0.1,1.2,0.2,1.7
			c0,0.3,0,0.6,0,0.9l0,0c-0.1,0.5-0.2,1-0.3,1.5c-0.2,1.1-0.6,2.2-1.1,3.3C6.6,41.7,6.1,42.5,5.5,43.3C5.6,43.2,5.5,43.2,5.5,43.3
			L5.5,43.3z M4.6,32.8C4.2,33,4.2,33,4.2,33.4C4.5,36,4.7,38.6,5,41.3c0,0.1,0,0.2,0,0.3c0.3-0.3,0.4-0.6,0.3-1
			c-0.2-1.9-0.4-3.7-0.6-5.6C4.8,34.2,4.7,33.5,4.6,32.8z M3.6,33.8L3.6,33.8c-0.2,0.2-0.4,0.3-0.4,0.6c0.3,2.7,0.5,5.4,0.8,8.1v0.1
			c0.3-0.2,0.4-0.4,0.3-0.7c-0.2-2-0.4-4-0.6-6C3.7,35.2,3.7,34.5,3.6,33.8z M3.4,43c-0.3-2.6-0.5-5.2-0.8-7.8
			c-0.1,0.1-0.1,0.1-0.1,0.2c-0.1,0.2-0.2,0.5-0.2,0.7c0.2,2.1,0.4,4.2,0.6,6.3c0,0.2,0.1,0.5,0.1,0.7C3.1,43.1,3.3,43.1,3.4,43z
			 M6,39.7L6,39.7c0.1-0.2,0.2-0.4,0.3-0.7c0-0.1,0-0.2,0-0.3c-0.2-2-0.4-4-0.6-6c0-0.2-0.1-0.2-0.3-0.2c-0.1,0-0.1,0-0.2,0
			C5.5,34.9,5.8,37.3,6,39.7z M2.3,43c-0.2-1.8-0.4-3.6-0.5-5.3c-0.1,0.1-0.1,0.2-0.1,0.3c-0.1,0.5-0.2,0.9-0.1,1.4
			c0.1,0.9,0.2,1.9,0.3,2.8C1.8,42.6,2,42.8,2.3,43z M6.5,33.2L6.5,33.2c0.1,1.2,0.2,2.4,0.3,3.6c0,0,0,0,0.1,0
			C7,35.6,7.1,34.3,6.5,33.2z"/>
		<path class="st1" d="M8.6,32.3C8.6,32.3,8.5,32.3,8.6,32.3c0.7,0,1.3,0.6,1.6,1.3c0.2,0.5,0.2,1,0.2,1.5c0,0.9,0,1.9-0.2,2.8
			c-0.4,1.8-1,3.5-2,5.1c-0.2,0.4-0.5,0.8-0.7,1.1c-0.5,0.6-1,1.1-1.9,1.1c-0.3,0-0.6-0.1-1-0.1c0,0,0,0,0-0.1
			c0.1,0,0.3-0.1,0.4-0.1c0.3-0.1,0.5-0.2,0.8-0.4c0.6-0.4,1.1-1,1.5-1.6c0.4-0.5,0.7-1.1,1-1.7l0.1-0.1c0.1-0.3,0.3-0.7,0.4-1V40
			c0,0,0.1,0,0.1-0.1c0.1-0.4,0.2-0.8,0.4-1.3l0,0c0.1-0.4,0.2-0.8,0.3-1.2c0-0.3,0.1-0.6,0.1-0.8c0.1-1.1,0.1-2.2-0.3-3.3
			C9.1,32.9,8.9,32.6,8.6,32.3z"/>
	</g>
</g>
</svg>
