<?xml version="1.0" encoding="utf-8"?>
<!-- Generator: Adobe Illustrator 21.0.0, SVG Export Plug-In . SVG Version: 6.00 Build 0)  -->
<svg version="1.1" id="Capa_1" xmlns="http://www.w3.org/2000/svg" xmlns:xlink="http://www.w3.org/1999/xlink" x="0px" y="0px"
	 viewBox="0 0 440 488" style="enable-background:new 0 0 440 488;" xml:space="preserve">
<style type="text/css">
	.st0{fill:red;}
</style>
<path class="st0" d="M298.1,339l-5.3-20.7c-3.8-14.5-5.9-28.4-7-41.7c-3,7.9-5.8,11.7-6.2,12.3c-1.5,1.9-3.7,2.9-5.9,2.9
	c-1.6,0-3.2-0.5-4.6-1.6c-3.3-2.5-3.9-7.2-1.4-10.5c0.1-0.1,15.8-22.4,7.8-78.4c-3.3-23.3-13.5-43.3-30.3-59.7
	c-9.3-9.1-18.2-14.4-22.3-16.7c-3.2,1.7-13.2,7.2-23.6,17.3c-16.8,16.3-27,36.4-30.3,59.7c-4.2,29.4,0.1,51.3,4.5,64.5
	c4.7,14.3,10.5,21.7,10.6,21.8c2.6,3.2,2,7.9-1.2,10.5c-1.4,1.1-3,1.7-4.7,1.7c-2.2,0-4.3-0.9-5.8-2.8c-1.1-1.4-27.3-34.6-18.3-97.8
	c9.1-64,61.5-88.1,63.7-89.1c0.9-0.4,1.7-0.6,2.6-0.6c1.9-0.9,4.1-0.9,6.2,0c2.2,1,53.2,24.5,63.3,86.6c6.1-44.1,12.8-81-11.4-115
	c-23.2-32.5-84-42-122.2,8.3c-50,66,0.1,175.5,22.3,245.4c4.3,14,11.1,34,17.1,50.5c4.7,12.6,22.5,54.7,74.8,45.7
	C315.8,424,306.5,376,298.1,339z"/>
</svg>
