<?xml version="1.0" encoding="utf-8"?>
<!-- Generator: Adobe Illustrator 21.0.0, SVG Export Plug-In . SVG Version: 6.00 Build 0)  -->
<svg version="1.1" id="Capa_1" xmlns="http://www.w3.org/2000/svg" xmlns:xlink="http://www.w3.org/1999/xlink" x="0px" y="0px"
	 viewBox="0 0 17.5 37.8" style="enable-background:new 0 0 17.5 37.8;" xml:space="preserve">
<style type="text/css">
	.st0{opacity:0.62;fill:rgba(255, 255, 255, 0.5);enable-background:new    ;}
	.st1{font-family:'Roboto-Regular';}
	.st2{font-size:7px;}
	.st3{opacity:0.34;fill:rgba(255, 255, 255, 0.5);enable-background:new    ;}
</style>
<g>
	<text id="XMLID_151_" transform="matrix(0.3036 -0.9528 0.9528 0.3036 8.6321 28.0218)" class="st0 st1 st2">Mollete</text>
	<path class="st0" d="M1.9,36.8c-1.7-1-1.6-2.6-1.4-4.3c0.2-1.3,0.8-2.4,1.8-3.3c0.9-0.7,1.8-1.1,2.9-0.8l0.1,0
		c0.2,0.1,0.5,0.2,0.7,0.3c1.5,1.3,1.5,2.9,1.1,4.6c-0.2,1.1-0.7,2.1-1.5,2.9c-0.9,0.8-2,1.1-3.2,0.8c-0.1,0-0.1,0-0.2,0
		C2,36.9,2,36.9,1.9,36.8z M6.4,33.7c0.4-0.9,0.6-1.7,0.5-2.7c-0.1-0.7-0.5-1.4-1.1-1.7c-1-0.5-1.8-0.2-2.5,0.3
		c-1.1,0.8-1.8,1.8-2.1,3.1c-0.3,0.9-0.3,1.8,0,2.7c0.2,0.5,0.5,1,1.1,1.2C3,37,3.7,36.9,4.5,36.3C5.3,35.6,6,34.6,6.4,33.7z"/>
	<path class="st3" d="M2.3,32.1c1.1,0.3,2,0.6,3.1,1l0,0.1c-0.5,0-2.1-0.4-3.1-0.9C2.3,32.2,2.3,32.1,2.3,32.1z"/>
	<path class="st3" d="M2.1,34.2c0.8,0.3,1.5,0.5,2.2,0.7c0,0,0,0,0,0.1C4,35,2.8,34.6,2.1,34.2L2.1,34.2z"/>
	<path class="st3" d="M3.5,30.6c0.8,0.3,1.5,0.5,2.2,0.7c0,0,0,0,0,0.1C5.4,31.4,4.2,31,3.5,30.6L3.5,30.6z"/>
</g>
</svg>
