<?xml version="1.0" encoding="utf-8"?>
<!-- Generator: Adobe Illustrator 21.0.0, SVG Export Plug-In . SVG Version: 6.00 Build 0)  -->
<svg version="1.1" id="Capa_1" xmlns="http://www.w3.org/2000/svg" xmlns:xlink="http://www.w3.org/1999/xlink" x="0px" y="0px"
	 viewBox="0 0 17.5 37.8" style="enable-background:new 0 0 17.5 37.8;" xml:space="preserve">
<style type="text/css">
	.st0{opacity:0.62;}
	.st1{fill:rgba(255, 255, 255, 0.5);}
	.st2{font-family:'Roboto-Regular';}
	.st3{font-size:7px;}
	.st4{fill:rgba(255, 255, 255, 0.5);}
</style>
<g id="XMLID_109_" class="st0">
	<text transform="matrix(0.3036 -0.9528 0.9528 0.3036 10.3768 23.6937)" class="st1 st2 st3">Pitufo</text>
</g>
<g id="_x38_z0jLb_1_" class="st0">
	<g>
		<g>
			<path class="st4" d="M8.2,24.1c1.3,0.9,1.6,2.2,1.5,3.6c-0.2,2.6-1,5.1-2.4,7.3c-0.4,0.6-0.9,1.1-1.5,1.5
				c-0.5,0.3-1.1,0.3-1.7,0.5c-0.3-0.1-0.6-0.2-0.9-0.3c-2.4-1.7-2.6-4.2-2.1-6.8c0.4-2,1.3-3.7,2.8-5c0.9-0.7,1.9-1.2,3-1.2
				c0.1,0,0.2,0,0.3,0C7.6,23.9,7.9,24,8.2,24.1z M2,29c-0.3,0.4-0.3,0.9,0,1.3c0.6,0.8,1.1,1.6,1.7,2.4c0.4,0.5,0.5,0.9,0.2,1.3
				S3,34.4,2.6,33.9c-0.3-0.3-0.7-0.7-1-1c0,1,0.5,2.2,1.2,2.8c1,0.9,2.3,0.9,3.3,0c0.3-0.3,0.5-0.6,0.7-0.9c1-1.6,1.6-3.4,2-5.2
				c0.2-1,0.3-2.1,0.3-3.1s-0.5-1.7-1.5-2.1c-1.1-0.3-2,0-3,0.6c0.4,0.4,0.7,0.8,1.1,1.2c0.4,0.4,0.5,1,0.2,1.3
				c-0.4,0.3-0.9,0.3-1.3-0.1s-0.7-0.8-1.1-1.2c-0.4,0.3-0.6,0.7-0.3,1.2c0.6,1,1.1,2.1,2,2.9c0.3,0.3,0.4,0.7,0.2,1
				c-0.2,0.2-0.5,0.4-0.8,0.4c-0.2,0-0.5-0.2-0.6-0.4C3.2,30.6,2.6,29.9,2,29z M2.6,27.6c-0.1,0-0.1,0-0.2,0c0,0.3-0.2,0.6-0.1,0.8
				c0.6,1,1.3,1.9,2,2.8c0.1,0.1,0.3,0,0.4,0c0-0.2,0-0.3-0.1-0.5c-0.4-0.5-0.8-0.9-1.1-1.4C3.3,28.8,3,28.2,2.6,27.6z M1.5,30.9
				c0,0.3-0.1,0.7,0,1c0.5,0.7,1,1.3,1.6,1.9c0.1,0.1,0.3,0,0.4,0c0-0.1,0-0.3,0-0.4C2.8,32.5,2.2,31.7,1.5,30.9z M3.8,25.9
				c0.4,0.5,0.8,0.9,1.3,1.4c0.1,0.1,0.3,0,0.5,0c0-0.1,0-0.3-0.1-0.4c-0.4-0.5-0.8-0.9-1.2-1.3C4.1,25.6,4,25.7,3.8,25.9z"/>
		</g>
	</g>
</g>
</svg>
