<?xml version="1.0" encoding="utf-8"?>
<!-- Generator: Adobe Illustrator 21.0.0, SVG Export Plug-In . SVG Version: 6.00 Build 0)  -->
<svg version="1.1" id="Capa_1" xmlns="http://www.w3.org/2000/svg" xmlns:xlink="http://www.w3.org/1999/xlink" x="0px" y="0px"
	 viewBox="0 0 841.9 595.3" style="enable-background:new 0 0 841.9 595.3;" xml:space="preserve">
<style type="text/css">
	.st0{fill:#4C5966;}
	.st1{fill:#57646E;stroke:#4B5864;stroke-miterlimit:10;}
	.st2{fill:none;stroke:#515151;stroke-width:1.437;stroke-miterlimit:10;}
	.st3{fill:#6EA96E;stroke:#515151;stroke-width:0.2738;stroke-miterlimit:10;}
	.st4{fill:#FFFFFF;}
	.st5{font-family:'Roboto-Regular';}
	.st6{font-size:8.6651px;}
	.st7{fill:none;stroke:#515151;stroke-width:0.3972;stroke-linecap:round;stroke-linejoin:round;stroke-miterlimit:10;}
	.st8{fill:none;stroke:#515151;stroke-width:0.45;stroke-linecap:round;stroke-linejoin:round;stroke-miterlimit:10;}
	.st9{fill:none;stroke:#515151;stroke-width:0.3884;stroke-linecap:round;stroke-linejoin:round;stroke-miterlimit:10;}
	.st10{fill:none;stroke:#515151;stroke-width:0.3984;stroke-linecap:round;stroke-linejoin:round;stroke-miterlimit:10;}
	.st11{fill:#1BD9DD;}
	.st12{fill:none;stroke:#515151;stroke-width:0.5;stroke-miterlimit:10;}
	.st13{fill:none;stroke:#FFFFFF;stroke-miterlimit:10;}
	.st14{fill:none;stroke:#515151;stroke-width:0.5;stroke-miterlimit:10;stroke-dasharray:0.3594,0.3594;}
	.st15{fill:#6EA96E;}
	.st16{fill:none;stroke:#515151;stroke-width:0.7351;stroke-miterlimit:10;stroke-dasharray:0.3594,0.3594;}
	.st17{opacity:0.24;}
	.st18{fill:#57646E;}
	.st19{clip-path:url(#XMLID_49_);}
	.st20{fill:none;stroke:#3FA1B0;stroke-miterlimit:10;}
	.st21{clip-path:url(#XMLID_52_);}
	.st22{fill:none;stroke:#FFFFFF;stroke-width:0.3972;stroke-linecap:round;stroke-linejoin:round;stroke-miterlimit:10;}
	.st23{fill:none;stroke:#FFFFFF;stroke-width:0.45;stroke-linecap:round;stroke-linejoin:round;stroke-miterlimit:10;}
	.st24{fill:none;stroke:#FFFFFF;stroke-width:0.3884;stroke-linecap:round;stroke-linejoin:round;stroke-miterlimit:10;}
	.st25{fill:none;stroke:#FFFFFF;stroke-width:0.3984;stroke-linecap:round;stroke-linejoin:round;stroke-miterlimit:10;}
	.st26{clip-path:url(#XMLID_55_);}
	.st27{fill:#4B5864;}
	.st28{opacity:0.3;fill:none;stroke:#FFFFFF;stroke-miterlimit:10;}
	.st29{opacity:0.42;fill:none;stroke:#FFFFFF;stroke-miterlimit:10;}
	.st30{fill:none;stroke:#FFFFFF;stroke-width:0.5;stroke-miterlimit:10;}
	.st31{fill:none;stroke:#FFFFFF;stroke-width:0.5;stroke-miterlimit:10;stroke-dasharray:0.3594,0.3594;}
	.st32{opacity:0.62;}
	.st33{font-size:7.948px;}
	.st34{opacity:0.62;fill:#57646E;}
	.st35{opacity:0.34;fill:#57646E;}
</style>
<rect x="-5.1" y="-1.3" class="st0" width="846.4" height="597"/>
<polygon class="st1" points="684.2,327.5 622.3,525.7 360.8,443.2 349.2,476 9.5,331.9 101,109.7 207.1,96.7 469.7,171.9 
	603.7,234.1 625.9,283.2 586.8,409.3 615.1,417.6 649.2,315.5 "/>
<image style="overflow:visible;" width="1910" height="1074" xlink:href="../../../Downloads/Pasted image at 2017_04_19 03_35 PM.png"  transform="matrix(1.0149 0 0 1.0149 -517.2059 1193.6718)">
</image>
<path id="XMLID_236_" class="st2" d="M582.6,483.8"/>
<rect id="XMLID_257_" x="718" y="234.6" transform="matrix(0.3036 -0.9528 0.9528 0.3036 276.8649 857.1256)" class="st3" width="13.5" height="9.2"/>
<text id="XMLID_172_" transform="matrix(-0.3036 0.9528 -0.9528 -0.3036 723.5448 232.7562)" class="st4 st5 st6">wc</text>
<g id="XMLID_34_">
	
		<ellipse id="XMLID_46_" transform="matrix(0.2866 -0.9581 0.9581 0.2866 303.3975 887.646)" class="st7" cx="747.7" cy="240.1" rx="1.7" ry="1.7"/>
	<path id="XMLID_45_" class="st8" d="M740.6,234.4l2,0.6c1.8,0.5,2.9,2.5,2.3,4.3l0,0c-0.5,1.8-2.5,2.9-4.3,2.3l-2-0.6"/>
	<path id="XMLID_44_" class="st8" d="M737.9,237.2l-2.6-0.8c-0.5-0.1-0.8-0.7-0.6-1.2l0,0c0.1-0.5,0.7-0.8,1.2-0.6l6.2,1.8"/>
	<path id="XMLID_42_" class="st8" d="M737.9,237.2l-2.6-0.8c-0.5-0.1-1,0.1-1.2,0.6l0,0c-0.1,0.5,0.1,1,0.6,1.2l6.2,1.8"/>
	<g id="XMLID_35_">
		
			<ellipse id="XMLID_41_" transform="matrix(0.2866 -0.9581 0.9581 0.2866 292.9947 891.3036)" class="st7" cx="744.9" cy="248.9" rx="1.7" ry="1.7"/>
		<path id="XMLID_40_" class="st9" d="M739.9,249.5l-2.2,0.4c-1.6-0.5-2.5-2.1-2-3.7l0,0c0.5-1.6,2.1-2.5,3.7-2l1.6,1.6"/>
		<path id="XMLID_39_" class="st8" d="M735.4,247.1l-3.1-0.9c-0.5-0.1-0.8-0.7-0.6-1.2l0,0c0.1-0.5,0.7-0.8,1.2-0.6l2.9,0.9"/>
		<line id="XMLID_37_" class="st10" x1="742.8" y1="246.2" x2="740.9" y2="243.3"/>
		<line id="XMLID_36_" class="st10" x1="741.6" y1="250" x2="738.5" y2="251.5"/>
	</g>
</g>
<g id="XMLID_474_">
	<path id="XMLID_478_" class="st11" d="M565.7,395.8c0.6,0.2,1.1,0.6,1.4,1.1c0.3,0.5,0.4,1.1,0.3,1.8c0.7-0.1,1.2,0.1,1.8,0.4
		c0.5,0.4,0.8,0.9,1,1.6c0.1,0.6,0.1,1.2-0.2,1.8c-0.3,0.5-0.8,0.9-1.4,1.1c0.4,0.5,0.5,1.1,0.5,1.7c-0.1,0.6-0.4,1.2-0.9,1.7
		c-0.5,0.4-1.1,0.7-1.7,0.6c-0.6,0-1.2-0.2-1.7-0.7c-0.3,0.6-0.7,1.1-1.3,1.3c-0.6,0.3-1.2,0.3-1.8,0.1s-1.1-0.6-1.4-1.1
		c-0.3-0.6-0.4-1.1-0.3-1.8c-0.6,0-1.2-0.1-1.7-0.5c-0.5-0.4-0.8-0.9-1-1.5c-0.1-0.7,0-1.3,0.3-1.9c0.3-0.6,0.8-0.9,1.4-1.1
		c-0.4-0.5-0.6-1.1-0.5-1.7c0-0.6,0.3-1.2,0.8-1.6c0.5-0.4,1.1-0.7,1.7-0.7c0.6,0,1.2,0.2,1.7,0.6c0.3-0.6,0.7-1,1.3-1.2
		C564.4,395.6,565,395.6,565.7,395.8z"/>
</g>
<g id="XMLID_471_">
	<path id="XMLID_472_" class="st11" d="M458.3,359.2c0.6,0.2,1.1,0.6,1.4,1.1c0.3,0.5,0.4,1.1,0.3,1.8c0.7-0.1,1.2,0.1,1.8,0.4
		c0.5,0.4,0.8,0.9,1,1.6c0.1,0.6,0.1,1.2-0.2,1.8c-0.3,0.5-0.8,0.9-1.4,1.1c0.4,0.5,0.5,1.1,0.5,1.7c-0.1,0.6-0.4,1.2-0.9,1.7
		c-0.5,0.4-1.1,0.7-1.7,0.6c-0.6,0-1.2-0.2-1.7-0.7c-0.3,0.6-0.7,1.1-1.3,1.3c-0.6,0.3-1.2,0.3-1.8,0.1c-0.6-0.2-1.1-0.6-1.4-1.1
		c-0.3-0.6-0.4-1.1-0.3-1.8c-0.6,0-1.2-0.1-1.7-0.5c-0.5-0.4-0.8-0.9-1-1.5c-0.1-0.7,0-1.3,0.3-1.9c0.3-0.6,0.8-0.9,1.4-1.1
		c-0.4-0.5-0.6-1.1-0.5-1.7c0-0.6,0.3-1.2,0.8-1.6c0.5-0.4,1.1-0.7,1.7-0.7c0.6,0,1.2,0.2,1.7,0.6c0.3-0.6,0.7-1,1.3-1.2
		C457.1,359.1,457.7,359,458.3,359.2z"/>
</g>
<g id="XMLID_462_">
	<path id="XMLID_464_" class="st11" d="M487.1,348.5c0.6,0.2,1.1,0.6,1.4,1.1c0.3,0.5,0.4,1.1,0.3,1.8c0.7-0.1,1.2,0.1,1.8,0.4
		s0.8,0.9,1,1.6c0.1,0.6,0.1,1.2-0.2,1.8c-0.3,0.5-0.8,0.9-1.4,1.1c0.4,0.5,0.5,1.1,0.5,1.7c-0.1,0.6-0.4,1.2-0.9,1.7
		c-0.5,0.4-1.1,0.7-1.7,0.6c-0.6,0-1.2-0.2-1.7-0.7c-0.3,0.6-0.7,1.1-1.3,1.3c-0.6,0.3-1.2,0.3-1.8,0.1c-0.6-0.2-1.1-0.6-1.4-1.1
		c-0.3-0.6-0.4-1.1-0.3-1.8c-0.6,0-1.2-0.1-1.7-0.5c-0.5-0.4-0.8-0.9-1-1.5c-0.1-0.7,0-1.3,0.3-1.9c0.3-0.6,0.8-0.9,1.4-1.1
		c-0.4-0.5-0.6-1.1-0.5-1.7c0-0.6,0.3-1.2,0.8-1.6c0.5-0.4,1.1-0.7,1.7-0.7c0.6,0,1.2,0.2,1.7,0.6c0.3-0.6,0.7-1,1.3-1.2
		C485.9,348.3,486.5,348.3,487.1,348.5z"/>
</g>
<g id="XMLID_155_">
	<path id="XMLID_156_" class="st11" d="M428.9,187.2c0.6,0.2,1.1,0.6,1.4,1.1c0.3,0.5,0.4,1.1,0.3,1.8c0.7-0.1,1.2,0.1,1.8,0.4
		c0.5,0.4,0.8,0.9,1,1.6c0.1,0.6,0.1,1.2-0.2,1.8c-0.3,0.5-0.8,0.9-1.4,1.1c0.4,0.5,0.5,1.1,0.5,1.7c-0.1,0.6-0.4,1.2-0.9,1.7
		c-0.5,0.4-1.1,0.7-1.7,0.6c-0.6,0-1.2-0.2-1.7-0.7c-0.3,0.6-0.7,1.1-1.3,1.3c-0.6,0.3-1.2,0.3-1.8,0.1c-0.6-0.2-1.1-0.6-1.4-1.1
		c-0.3-0.6-0.4-1.1-0.3-1.8c-0.6,0-1.2-0.1-1.7-0.5c-0.5-0.4-0.8-0.9-1-1.5c-0.1-0.7,0-1.3,0.3-1.9c0.3-0.6,0.8-0.9,1.4-1.1
		c-0.4-0.5-0.6-1.1-0.5-1.7c0-0.6,0.3-1.2,0.8-1.6c0.5-0.4,1.1-0.7,1.7-0.7c0.6,0,1.2,0.2,1.7,0.6c0.3-0.6,0.7-1,1.3-1.2
		C427.7,187,428.3,187,428.9,187.2z"/>
</g>
<g id="XMLID_22_">
	<path id="XMLID_153_" class="st11" d="M457.7,176.5c0.6,0.2,1.1,0.6,1.4,1.1c0.3,0.5,0.4,1.1,0.3,1.8c0.7-0.1,1.2,0.1,1.8,0.4
		c0.5,0.4,0.8,0.9,1,1.6c0.1,0.6,0.1,1.2-0.2,1.8c-0.3,0.5-0.8,0.9-1.4,1.1c0.4,0.5,0.5,1.1,0.5,1.7c-0.1,0.6-0.4,1.2-0.9,1.7
		c-0.5,0.4-1.1,0.7-1.7,0.6c-0.6,0-1.2-0.2-1.7-0.7c-0.3,0.6-0.7,1.1-1.3,1.3c-0.6,0.3-1.2,0.3-1.8,0.1s-1.1-0.6-1.4-1.1
		c-0.3-0.6-0.4-1.1-0.3-1.8c-0.6,0-1.2-0.1-1.7-0.5c-0.5-0.4-0.8-0.9-1-1.5c-0.1-0.7,0-1.3,0.3-1.9c0.3-0.6,0.8-0.9,1.4-1.1
		c-0.4-0.5-0.6-1.1-0.5-1.7c0-0.6,0.3-1.2,0.8-1.6c0.5-0.4,1.1-0.7,1.7-0.7c0.6,0,1.2,0.2,1.7,0.6c0.3-0.6,0.7-1,1.3-1.2
		C456.5,176.3,457.1,176.3,457.7,176.5z"/>
</g>
<g id="XMLID_5_">
	<path id="XMLID_9_" class="st11" d="M-155.4,1884.4c2,0.6,3.5,1.8,4.5,3.5c1,1.7,1.3,3.5,0.9,5.5c2.1-0.3,3.9,0.2,5.5,1.4
		c1.6,1.2,2.6,2.8,3.1,5c0.5,2,0.2,3.9-0.7,5.6c-1,1.7-2.4,2.8-4.3,3.4c1.2,1.6,1.7,3.4,1.5,5.4c-0.2,2-1.1,3.8-2.7,5.2
		c-1.6,1.4-3.4,2-5.4,2c-2,0-3.7-0.7-5.2-2.2c-0.9,1.9-2.2,3.3-4,4.2c-1.8,0.8-3.6,1-5.7,0.3s-3.5-1.8-4.5-3.5
		c-1-1.7-1.3-3.5-0.9-5.5c-2,0.1-3.8-0.4-5.3-1.5c-1.6-1.1-2.6-2.7-3.1-4.6c-0.4-2.1-0.2-4,0.9-5.8s2.5-2.9,4.4-3.5
		c-1.2-1.6-1.7-3.3-1.6-5.3c0.2-2,1-3.6,2.6-5c1.6-1.4,3.4-2.1,5.3-2.2c1.9-0.1,3.6,0.5,5.2,1.8c0.8-1.8,2.1-3.1,3.9-3.9
		C-159.3,1883.8-157.4,1883.7-155.4,1884.4z"/>
</g>
<g id="XMLID_1_">
	<path id="XMLID_2_" class="st11" d="M-65.7,1851c2,0.6,3.5,1.8,4.5,3.5c1,1.7,1.3,3.5,0.9,5.5c2.1-0.3,3.9,0.2,5.5,1.4
		s2.6,2.8,3.1,5c0.5,2,0.2,3.9-0.7,5.6c-1,1.7-2.4,2.8-4.3,3.4c1.2,1.6,1.7,3.4,1.5,5.4c-0.2,2-1.1,3.8-2.7,5.2
		c-1.6,1.4-3.4,2-5.4,2c-2,0-3.7-0.7-5.2-2.2c-0.9,1.9-2.2,3.3-4,4.2c-1.8,0.8-3.6,1-5.7,0.3s-3.5-1.8-4.5-3.5
		c-1-1.7-1.3-3.5-0.9-5.5c-2,0.1-3.8-0.4-5.3-1.5c-1.6-1.1-2.6-2.7-3.1-4.6c-0.4-2.1-0.2-4,0.9-5.8s2.5-2.9,4.4-3.5
		c-1.2-1.6-1.7-3.3-1.6-5.3c0.2-2,1-3.6,2.6-5c1.6-1.4,3.4-2.1,5.3-2.2c1.9-0.1,3.6,0.5,5.2,1.8c0.8-1.8,2.1-3.1,3.9-3.9
		C-69.6,1850.5-67.7,1850.4-65.7,1851z"/>
</g>
<g id="XMLID_430_">
	<line id="XMLID_436_" class="st12" x1="87.8" y1="1636.6" x2="98.6" y2="1602.7"/>
	<line id="XMLID_435_" class="st12" x1="70" y1="1692.5" x2="80.8" y2="1658.6"/>
	<line id="XMLID_434_" class="st12" x1="57.1" y1="1733" x2="67.9" y2="1699.2"/>
	<line id="XMLID_433_" class="st12" x1="39.3" y1="1788.9" x2="50" y2="1755.1"/>
	<line id="XMLID_432_" class="st12" x1="119" y1="1538.6" x2="129.8" y2="1504.8"/>
	<line id="XMLID_431_" class="st12" x1="101.2" y1="1594.5" x2="112" y2="1560.7"/>
</g>
<line id="XMLID_429_" class="st12" x1="79.7" y1="1526.1" x2="90.5" y2="1492.3"/>
<line id="XMLID_426_" class="st12" x1="61.9" y1="1582" x2="72.7" y2="1548.2"/>
<line id="XMLID_425_" class="st12" x1="-168.3" y1="1541.2" x2="-202.1" y2="1530.4"/>
<line id="XMLID_424_" class="st12" x1="-112.4" y1="1559" x2="-146.2" y2="1548.2"/>
<line id="XMLID_423_" class="st12" x1="-277.5" y1="1506.4" x2="-296.3" y2="1500.4"/>
<line id="XMLID_390_" class="st12" x1="-221.6" y1="1524.2" x2="-255.5" y2="1513.4"/>
<line id="XMLID_389_" class="st12" x1="-330.4" y1="1489.5" x2="-360.1" y2="1480"/>
<line id="XMLID_387_" class="st12" x1="-381.7" y1="1473.2" x2="-415.5" y2="1462.4"/>
<line id="XMLID_349_" class="st12" x1="-472.8" y1="1448.9" x2="-556.9" y2="1422.2"/>
<line id="XMLID_346_" class="st12" x1="-802.8" y1="869.5" x2="-893.6" y2="840.6"/>
<g>
	<line id="XMLID_339_" class="st13" x1="380.7" y1="162.4" x2="382.3" y2="157.1"/>
	<path id="XMLID_337_" class="st13" d="M378.2,157.6c0,0-1.3,3.6,2.4,4.8"/>
	<line id="XMLID_336_" class="st13" x1="373.3" y1="160.1" x2="375.1" y2="154.6"/>
	<path id="XMLID_335_" class="st13" d="M378.1,157.5c0,0-1,3.7-4.8,2.5"/>
</g>
<path id="XMLID_334_" class="st14" d="M-556.2,1436.4c0,0-10-3.6-13.3,6.7"/>
<g id="XMLID_317_">
	<line id="XMLID_329_" class="st12" x1="-570.3" y1="1443.7" x2="-555.6" y2="1448.4"/>
	<line id="XMLID_326_" class="st12" x1="-563.8" y1="1423.5" x2="-548.9" y2="1428.2"/>
	<path id="XMLID_323_" class="st14" d="M-556.9,1436.6c0,0-10.2-2.8-7-13.2"/>
	<line id="XMLID_322_" class="st12" x1="-577.1" y1="1465.1" x2="-562.4" y2="1469.8"/>
	<path id="XMLID_320_" class="st14" d="M-563.8,1458.4c0,0-10-3.6-13.3,6.7"/>
	<line id="XMLID_319_" class="st12" x1="-570.7" y1="1444.9" x2="-555.7" y2="1449.7"/>
	<path id="XMLID_318_" class="st14" d="M-563.7,1458.1c0,0-10.2-2.8-7-13.2"/>
</g>
<line id="XMLID_286_" class="st12" x1="-323" y1="1481.1" x2="-327.1" y2="1493.8"/>
<path id="XMLID_285_" class="st14" d="M-317.3,1492.6c0,0,3.1-8.6-5.8-11.4"/>
<line id="XMLID_284_" class="st12" x1="-305.6" y1="1486.7" x2="-309.7" y2="1499.6"/>
<path id="XMLID_283_" class="st14" d="M-316.9,1492.7c0,0,2.4-8.8,11.3-6"/>
<rect id="registration_bg_1_" x="-284.7" y="1446.9" transform="matrix(0.3036 -0.9528 0.9528 0.3036 -1589.8699 789.1465)" class="st15" width="59.1" height="70.5"/>
<path id="XMLID_237_" class="st2" d="M154.9,1991.3"/>
<polyline id="XMLID_220_" class="st12" points="-605.9,1406.1 -585.6,1412.6 -512.9,1184.4 -523.6,1181 "/>
<line id="XMLID_185_" class="st12" x1="-603.1" y1="1397.3" x2="-607.2" y2="1410.2"/>
<path id="XMLID_184_" class="st14" d="M-614.4,1403.3c0,0,2.4-8.8,11.3-6"/>
<polyline id="XMLID_179_" class="st12" points="-327.2,1490.2 -336.2,1487.3 -251.9,1222.7 -319.7,1201.1 -404,1465.7 -442,1453.6 
	-423.5,1395.6 -491.2,1374 -509.7,1432 -551.9,1418.6 -480.9,1195.8 -378.8,1228.3 -346.7,1127.8 -478.6,1085.8 -472.9,1068 
	-500.1,1059.3 "/>
<polyline id="XMLID_178_" class="st12" points="67.9,1699.2 75,1676.8 76.2,1677.2 76.4,1676.6 189.9,1712.7 208.2,1655.1 
	93.5,1618.6 105.9,1579.9 217.4,1615.4 237.1,1553.6 125.5,1518.1 165.2,1393.6 125.8,1381.1 86.1,1505.6 51.8,1494.6 32.1,1556.4 
	66.5,1567.3 52.5,1611.1 -122.7,1555.3 -39.1,1292.8 -106.8,1271.2 -190.4,1533.8 -230.5,1521 -212.6,1464.7 -280.3,1443.1 
	-298.2,1499.4 -307.7,1496.4 "/>
<line id="XMLID_177_" class="st12" x1="62.8" y1="1714.9" x2="67.9" y2="1699.2"/>
<line id="XMLID_176_" class="st12" x1="-254.1" y1="1502.3" x2="-258.2" y2="1515.2"/>
<path id="XMLID_175_" class="st16" d="M-265.4,1508.3c0,0,2.4-8.8,11.3-6"/>
<line id="XMLID_174_" class="st12" x1="-271.5" y1="1496.7" x2="-275.5" y2="1509.3"/>
<text id="XMLID_173_" transform="matrix(-0.3036 0.9528 -0.9528 -0.3036 -258.7213 1458.0511)" class="st4 st5" style="font-size:26.9675px;">wc</text>
<path id="XMLID_171_" class="st14" d="M-265.7,1508.1c0,0,3.1-8.6-5.8-11.4"/>
<g id="XMLID_138_" class="st17">
	<g>
		<path id="XMLID_198_" class="st18" d="M509,336.7l-14.5-4.6c-0.4-0.1-0.7-0.1-1.1,0.1c-0.4,0.2-0.6,0.5-0.7,0.8
			c-0.1,0.4-0.1,0.7,0.1,1.1c0.2,0.4,0.5,0.6,0.8,0.7l14.5,4.6c0,0.5,0.9,2.4,1.3,2.6l5.8,1.9c0.2,0.1,0.4,0,0.6-0.1
			c0.2-0.1,0.3-0.2,0.4-0.4c0.1-0.2,0-0.4-0.1-0.6c-0.1-0.2-0.2-0.3-0.4-0.4l-4.5-1.4c-0.2-0.1-0.3-0.2-0.4-0.4
			c-0.1-0.2-0.1-0.4-0.1-0.6c0.1-0.2,0.2-0.3,0.4-0.4c0.2-0.1,0.4-0.1,0.6-0.1l4.5,1.4c0.2,0.1,0.4,0,0.6-0.1
			c0.2-0.1,0.3-0.2,0.4-0.4c0.1-0.2,0-0.4,0-0.6c-0.1-0.2-0.2-0.3-0.4-0.4l-4.5-1.4c-0.2-0.1-0.3-0.2-0.4-0.4
			c-0.1-0.2-0.1-0.4-0.1-0.6c0.1-0.2,0.2-0.3,0.4-0.4c0.2-0.1,0.4-0.1,0.6-0.1l4.5,1.4c0.2,0.1,0.4,0,0.6-0.1
			c0.2-0.1,0.3-0.2,0.4-0.4c0.1-0.2,0-0.4-0.1-0.6c-0.1-0.2-0.2-0.3-0.4-0.4l-5.8-1.9C511.2,334.9,509.2,336.3,509,336.7L509,336.7z
			 M509,336.7"/>
		<g id="XMLID_191_">
			<path id="XMLID_195_" class="st18" d="M492.7,333C492.7,333,492.7,333,492.7,333C492.7,333,492.7,333,492.7,333L492.7,333z
				 M492.7,333"/>
			<path id="XMLID_192_" class="st18" d="M503.2,342.9l-0.5,1.6l-11.3-3.6c-0.4-0.1-0.7-0.1-1.1,0.1c-0.4,0.2-0.6,0.5-0.7,0.8
				c-0.1,0.4-0.1,0.7,0.1,1.1c0.2,0.4,0.5,0.6,0.8,0.7l23.1,7.4c0.2,0.1,0.4,0,0.6-0.1c0.2-0.1,0.3-0.2,0.4-0.4l0.2-0.5
				c0.3-1,0.2-1.9-0.2-2.8c-0.5-0.9-1.2-1.5-2.1-1.8l-8.7-2.8c-0.1,0-0.2,0-0.3,0C503.3,342.7,503.2,342.8,503.2,342.9L503.2,342.9z
				 M503.2,342.9"/>
		</g>
	</g>
</g>
<text id="XMLID_137_" transform="matrix(-0.3036 0.9528 -0.9528 -0.3036 -141.1129 1671.9788)"><tspan x="0" y="0" class="st4 st5" style="font-size:26.9675px;">Catering &amp; Party </tspan><tspan x="73.8" y="31.5" class="st4 st5" style="font-size:26.9675px;">Area</tspan></text>
<g id="XMLID_91_">
	<g>
		<defs>
			<polygon id="XMLID_87_" points="220.3,2094.4 222,2088.8 222.2,2088.1 378.8,1596.7 290.7,1568.6 133,2067.5 133,2067.5 
				133,2067.5 			"/>
		</defs>
		<clipPath id="XMLID_47_">
			<use xlink:href="#XMLID_87_"  style="overflow:visible;"/>
		</clipPath>
		<use xlink:href="#XMLID_87_"  style="overflow:visible;fill:none;stroke:#FFFFFF;stroke-miterlimit:10;"/>
	</g>
</g>
<g id="XMLID_85_">
	<g>
		<defs>
			<polygon id="XMLID_794_" points="-545.8,1768.4 -544.8,1765.4 -544.7,1765.1 -461.8,1507.2 -528.8,1486 -612,1747.8 -612,1747.8 
				-610.5,1748.3 			"/>
		</defs>
		<clipPath id="XMLID_48_">
			<use xlink:href="#XMLID_794_"  style="overflow:visible;"/>
		</clipPath>
	</g>
	<g>
		<defs>
			<polygon id="XMLID_751_" points="-545.8,1768.4 -544.8,1765.4 -544.7,1765.1 -461.8,1507.2 -528.8,1486 -612,1747.8 -612,1747.8 
				-610.5,1748.3 			"/>
		</defs>
		<clipPath id="XMLID_49_">
			<use xlink:href="#XMLID_751_"  style="overflow:visible;"/>
		</clipPath>
		<g id="XMLID_752_" class="st19">
			<g id="XMLID_774_">
				<line id="XMLID_793_" class="st20" x1="-584.8" y1="1822.6" x2="-277" y2="1753.8"/>
				<line id="XMLID_792_" class="st20" x1="-597.2" y1="1803.4" x2="-289.5" y2="1734.6"/>
				<line id="XMLID_791_" class="st20" x1="-591" y1="1813" x2="-283.3" y2="1744.2"/>
				<line id="XMLID_790_" class="st20" x1="-572.3" y1="1841.7" x2="-264.6" y2="1772.9"/>
				<line id="XMLID_789_" class="st20" x1="-578.6" y1="1832.1" x2="-270.8" y2="1763.3"/>
				<line id="XMLID_788_" class="st20" x1="-609.7" y1="1784.2" x2="-301.9" y2="1715.5"/>
				<line id="XMLID_787_" class="st20" x1="-603.4" y1="1793.8" x2="-295.7" y2="1725"/>
				<line id="XMLID_786_" class="st20" x1="-615.9" y1="1774.6" x2="-308.2" y2="1705.9"/>
				<line id="XMLID_785_" class="st20" x1="-622.1" y1="1765" x2="-314.4" y2="1696.3"/>
				<line id="XMLID_784_" class="st20" x1="-628.3" y1="1755.5" x2="-320.6" y2="1686.7"/>
				<line id="XMLID_783_" class="st20" x1="-634.6" y1="1745.9" x2="-326.8" y2="1677.1"/>
				<line id="XMLID_782_" class="st20" x1="-647" y1="1726.7" x2="-339.3" y2="1657.9"/>
				<line id="XMLID_781_" class="st20" x1="-640.8" y1="1736.3" x2="-333.1" y2="1667.5"/>
				<line id="XMLID_780_" class="st20" x1="-653.3" y1="1717.1" x2="-345.5" y2="1648.4"/>
				<line id="XMLID_779_" class="st20" x1="-659.5" y1="1707.5" x2="-351.7" y2="1638.8"/>
				<line id="XMLID_778_" class="st20" x1="-665.7" y1="1697.9" x2="-358" y2="1629.2"/>
				<line id="XMLID_777_" class="st20" x1="-671.9" y1="1688.3" x2="-364.2" y2="1619.6"/>
				<line id="XMLID_776_" class="st20" x1="-684.4" y1="1669.2" x2="-376.7" y2="1600.4"/>
				<line id="XMLID_775_" class="st20" x1="-678.2" y1="1678.8" x2="-370.4" y2="1610"/>
			</g>
			<g id="XMLID_753_">
				<line id="XMLID_773_" class="st20" x1="-703.5" y1="1640" x2="-395.8" y2="1571.3"/>
				<line id="XMLID_772_" class="st20" x1="-716" y1="1620.9" x2="-408.2" y2="1552.1"/>
				<line id="XMLID_771_" class="st20" x1="-709.7" y1="1630.5" x2="-402" y2="1561.7"/>
				<line id="XMLID_769_" class="st20" x1="-691.1" y1="1659.2" x2="-383.3" y2="1590.4"/>
				<line id="XMLID_768_" class="st20" x1="-697.3" y1="1649.6" x2="-389.6" y2="1580.8"/>
				<line id="XMLID_767_" class="st20" x1="-728.4" y1="1601.7" x2="-420.7" y2="1533"/>
				<line id="XMLID_766_" class="st20" x1="-722.2" y1="1611.3" x2="-414.5" y2="1542.5"/>
				<line id="XMLID_765_" class="st20" x1="-734.6" y1="1592.1" x2="-426.9" y2="1523.4"/>
				<line id="XMLID_764_" class="st20" x1="-740.9" y1="1582.5" x2="-433.1" y2="1513.8"/>
				<line id="XMLID_763_" class="st20" x1="-747.1" y1="1572.9" x2="-439.4" y2="1504.2"/>
				<line id="XMLID_762_" class="st20" x1="-753.3" y1="1563.4" x2="-445.6" y2="1494.6"/>
				<line id="XMLID_761_" class="st20" x1="-765.8" y1="1544.2" x2="-458" y2="1475.4"/>
				<line id="XMLID_760_" class="st20" x1="-759.5" y1="1553.8" x2="-451.8" y2="1485"/>
				<line id="XMLID_759_" class="st20" x1="-772" y1="1534.6" x2="-464.3" y2="1465.8"/>
				<line id="XMLID_758_" class="st20" x1="-778.2" y1="1525" x2="-470.5" y2="1456.3"/>
				<line id="XMLID_757_" class="st20" x1="-784.5" y1="1515.4" x2="-476.7" y2="1446.7"/>
				<line id="XMLID_756_" class="st20" x1="-790.7" y1="1505.8" x2="-482.9" y2="1437.1"/>
				<line id="XMLID_755_" class="st20" x1="-803.1" y1="1486.7" x2="-495.4" y2="1417.9"/>
				<line id="XMLID_754_" class="st20" x1="-796.9" y1="1496.3" x2="-489.2" y2="1427.5"/>
			</g>
		</g>
		<use xlink:href="#XMLID_751_"  style="overflow:visible;fill:none;stroke:#3FA1B0;stroke-miterlimit:10;"/>
	</g>
	<g>
		<defs>
			<polygon id="XMLID_614_" points="-545.8,1768.4 -544.8,1765.4 -544.7,1765.1 -461.8,1507.2 -528.8,1486 -612,1747.8 -612,1747.8 
				-610.5,1748.3 			"/>
		</defs>
		<clipPath id="XMLID_50_">
			<use xlink:href="#XMLID_614_"  style="overflow:visible;"/>
		</clipPath>
	</g>
</g>
<g id="XMLID_369_">
	<g>
		<defs>
			<polygon id="XMLID_728_" points="-337.9,1484.2 -336.9,1481.3 -336.8,1480.9 -253.9,1223 -320.9,1201.8 -404.1,1463.7 
				-404.1,1463.7 -402.6,1464.1 			"/>
		</defs>
		<clipPath id="XMLID_51_">
			<use xlink:href="#XMLID_728_"  style="overflow:visible;"/>
		</clipPath>
	</g>
	<g>
		<defs>
			<polygon id="XMLID_685_" points="-337.9,1484.2 -336.9,1481.3 -336.8,1480.9 -253.9,1223 -320.9,1201.8 -404.1,1463.7 
				-404.1,1463.7 -402.6,1464.1 			"/>
		</defs>
		<clipPath id="XMLID_52_">
			<use xlink:href="#XMLID_685_"  style="overflow:visible;"/>
		</clipPath>
		<g id="XMLID_686_" class="st21">
			<g id="XMLID_707_">
				<line id="XMLID_727_" class="st20" x1="-394" y1="1552.2" x2="-86.3" y2="1483.5"/>
				<line id="XMLID_726_" class="st20" x1="-406.5" y1="1533.1" x2="-98.8" y2="1464.3"/>
				<line id="XMLID_724_" class="st20" x1="-400.3" y1="1542.6" x2="-92.5" y2="1473.9"/>
				<line id="XMLID_723_" class="st20" x1="-381.6" y1="1571.3" x2="-73.9" y2="1502.6"/>
				<line id="XMLID_722_" class="st20" x1="-387.8" y1="1561.8" x2="-80.1" y2="1493"/>
				<line id="XMLID_721_" class="st20" x1="-418.9" y1="1513.9" x2="-111.2" y2="1445.1"/>
				<line id="XMLID_720_" class="st20" x1="-412.7" y1="1523.5" x2="-105" y2="1454.7"/>
				<line id="XMLID_719_" class="st20" x1="-425.2" y1="1504.3" x2="-117.4" y2="1435.6"/>
				<line id="XMLID_718_" class="st20" x1="-431.4" y1="1494.7" x2="-123.7" y2="1426"/>
				<line id="XMLID_717_" class="st20" x1="-437.6" y1="1485.1" x2="-129.9" y2="1416.4"/>
				<line id="XMLID_716_" class="st20" x1="-443.8" y1="1475.5" x2="-136.1" y2="1406.8"/>
				<line id="XMLID_715_" class="st20" x1="-456.3" y1="1456.4" x2="-148.6" y2="1387.6"/>
				<line id="XMLID_714_" class="st20" x1="-450.1" y1="1466" x2="-142.3" y2="1397.2"/>
				<line id="XMLID_713_" class="st20" x1="-462.5" y1="1446.8" x2="-154.8" y2="1378"/>
				<line id="XMLID_712_" class="st20" x1="-468.8" y1="1437.2" x2="-161" y2="1368.4"/>
				<line id="XMLID_711_" class="st20" x1="-475" y1="1427.6" x2="-167.2" y2="1358.9"/>
				<line id="XMLID_710_" class="st20" x1="-481.2" y1="1418" x2="-173.5" y2="1349.3"/>
				<line id="XMLID_709_" class="st20" x1="-493.7" y1="1398.9" x2="-185.9" y2="1330.1"/>
				<line id="XMLID_708_" class="st20" x1="-487.4" y1="1408.4" x2="-179.7" y2="1339.7"/>
			</g>
			<g id="XMLID_687_">
				<line id="XMLID_706_" class="st20" x1="-512.8" y1="1369.7" x2="-205" y2="1301"/>
				<line id="XMLID_705_" class="st20" x1="-525.2" y1="1350.6" x2="-217.5" y2="1281.8"/>
				<line id="XMLID_704_" class="st20" x1="-519" y1="1360.1" x2="-211.3" y2="1291.4"/>
				<line id="XMLID_703_" class="st20" x1="-500.4" y1="1388.8" x2="-192.6" y2="1320.1"/>
				<line id="XMLID_702_" class="st20" x1="-506.6" y1="1379.3" x2="-198.8" y2="1310.5"/>
				<line id="XMLID_701_" class="st20" x1="-537.7" y1="1331.4" x2="-230" y2="1262.6"/>
				<line id="XMLID_700_" class="st20" x1="-531.5" y1="1341" x2="-223.7" y2="1272.2"/>
				<line id="XMLID_699_" class="st20" x1="-543.9" y1="1321.8" x2="-236.2" y2="1253"/>
				<line id="XMLID_698_" class="st20" x1="-550.1" y1="1312.2" x2="-242.4" y2="1243.5"/>
				<line id="XMLID_697_" class="st20" x1="-556.4" y1="1302.6" x2="-248.6" y2="1233.9"/>
				<line id="XMLID_696_" class="st20" x1="-562.6" y1="1293" x2="-254.9" y2="1224.3"/>
				<line id="XMLID_695_" class="st20" x1="-575" y1="1273.9" x2="-267.3" y2="1205.1"/>
				<line id="XMLID_694_" class="st20" x1="-568.8" y1="1283.5" x2="-261.1" y2="1214.7"/>
				<line id="XMLID_693_" class="st20" x1="-581.3" y1="1264.3" x2="-273.5" y2="1195.5"/>
				<line id="XMLID_692_" class="st20" x1="-587.5" y1="1254.7" x2="-279.8" y2="1185.9"/>
				<line id="XMLID_691_" class="st20" x1="-593.7" y1="1245.1" x2="-286" y2="1176.4"/>
				<line id="XMLID_690_" class="st20" x1="-600" y1="1235.5" x2="-292.2" y2="1166.8"/>
				<line id="XMLID_689_" class="st20" x1="-612.4" y1="1216.4" x2="-304.7" y2="1147.6"/>
				<line id="XMLID_688_" class="st20" x1="-606.2" y1="1225.9" x2="-298.4" y2="1157.2"/>
			</g>
		</g>
		<use xlink:href="#XMLID_685_"  style="overflow:visible;fill:none;stroke:#3FA1B0;stroke-miterlimit:10;"/>
	</g>
	<g>
		<defs>
			<polygon id="XMLID_592_" points="-337.9,1484.2 -336.9,1481.3 -336.8,1480.9 -253.9,1223 -320.9,1201.8 -404.1,1463.7 
				-404.1,1463.7 -402.6,1464.1 			"/>
		</defs>
		<clipPath id="XMLID_53_">
			<use xlink:href="#XMLID_592_"  style="overflow:visible;"/>
		</clipPath>
	</g>
</g>
<g id="XMLID_20_">
	
		<ellipse id="XMLID_32_" transform="matrix(0.2866 -0.9581 0.9581 0.2866 -1496.8512 801.9041)" class="st22" cx="-210" cy="1406" rx="5.2" ry="5.2"/>
	<path id="XMLID_31_" class="st23" d="M-232,1388.1l6.2,1.8c5.7,1.7,8.9,7.7,7.2,13.4v0c-1.7,5.7-7.7,8.9-13.4,7.2l-6.2-1.8"/>
	<path id="XMLID_30_" class="st23" d="M-240.4,1396.9l-8-2.4c-1.5-0.5-2.4-2.1-2-3.6l0,0c0.5-1.5,2.1-2.4,3.6-2l19.2,5.7"/>
	<path id="XMLID_29_" class="st23" d="M-240.4,1396.9l-8-2.4c-1.5-0.5-3.2,0.4-3.6,2l0,0c-0.5,1.5,0.4,3.2,2,3.6l19.2,5.7"/>
	<g id="XMLID_21_">
		
			<ellipse id="XMLID_27_" transform="matrix(0.2866 -0.9581 0.9581 0.2866 -1529.2269 813.2872)" class="st22" cx="-218.5" cy="1433.4" rx="5.2" ry="5.2"/>
		<path id="XMLID_26_" class="st24" d="M-234.3,1435.1l-7,1.4c-4.9-1.5-7.7-6.7-6.2-11.6l0,0c1.5-4.9,6.7-7.7,11.6-6.2l5.1,5"/>
		<path id="XMLID_25_" class="st23" d="M-248.2,1427.6l-9.5-2.9c-1.5-0.5-2.4-2.1-2-3.6l0,0c0.5-1.5,2.1-2.4,3.6-2l9.2,2.7"/>
		<line id="XMLID_24_" class="st25" x1="-225.4" y1="1425" x2="-231" y2="1415.9"/>
		<line id="XMLID_23_" class="st25" x1="-228.9" y1="1436.9" x2="-238.7" y2="1441.4"/>
	</g>
</g>
<path id="XMLID_18_" class="st4" d="M127.9,2012.4l-5.8-10.6c-0.6-1.1-2.1-1.6-3.3-1c-1.2,0.6-1.6,2-1,3.1l3,5.5l-12.9-4
	c-1.3-0.4-2.6,0.3-3,1.5c-0.4,1.2,0.3,2.5,1.6,2.9l12.9,4l-5.7,2.8c-1.2,0.6-1.6,2-1,3.1c0.3,0.6,0.8,1,1.4,1.2s1.2,0.2,1.8-0.1
	l10.8-5.3c0.6-0.3,1-0.8,1.2-1.3C128.2,2013.6,128.2,2012.9,127.9,2012.4z"/>
<path id="XMLID_19_" class="st4" d="M14.5,1977l-5.8-10.6c-0.6-1.1-2.1-1.6-3.3-1c-1.2,0.6-1.6,2-1,3.1l3,5.5l-12.9-4
	c-1.3-0.4-2.6,0.3-3,1.5c-0.4,1.2,0.3,2.5,1.6,2.9l12.9,4l-5.7,2.8c-1.2,0.6-1.6,2-1,3.1c0.3,0.6,0.8,1,1.4,1.2
	c0.6,0.2,1.2,0.2,1.8-0.1l10.8-5.3c0.6-0.3,1-0.8,1.2-1.3C14.8,1978.2,14.8,1977.6,14.5,1977z"/>
<path id="XMLID_60_" class="st4" d="M-126.9,1932.9l-5.8-10.6c-0.6-1.1-2.1-1.6-3.3-1c-1.2,0.6-1.6,2-1,3.1l3,5.5l-12.9-4
	c-1.3-0.4-2.6,0.3-3,1.5c-0.4,1.2,0.3,2.5,1.6,2.9l12.9,4l-5.7,2.8c-1.2,0.6-1.6,2-1,3.1c0.3,0.6,0.8,1,1.4,1.2
	c0.6,0.2,1.2,0.2,1.8-0.1l10.8-5.3c0.6-0.3,1-0.8,1.2-1.3C-126.6,1934.1-126.6,1933.5-126.9,1932.9z"/>
<path id="XMLID_67_" class="st4" d="M-298.2,1879.5l-5.8-10.6c-0.6-1.1-2.1-1.6-3.3-1c-1.2,0.6-1.6,2-1,3.1l3,5.5l-12.9-4
	c-1.3-0.4-2.6,0.3-3,1.5c-0.4,1.2,0.3,2.5,1.6,2.9l12.9,4l-5.7,2.8c-1.2,0.6-1.6,2-1,3.1c0.3,0.6,0.8,1,1.4,1.2s1.2,0.2,1.8-0.1
	l10.8-5.3c0.6-0.3,1-0.8,1.2-1.3C-297.9,1880.7-297.9,1880.1-298.2,1879.5z"/>
<path id="XMLID_72_" class="st4" d="M-496.2,1817.8l-5.8-10.6c-0.6-1.1-2.1-1.6-3.3-1c-1.2,0.6-1.6,2-1,3.1l3,5.5l-12.9-4
	c-1.3-0.4-2.6,0.3-3,1.5c-0.4,1.2,0.3,2.5,1.6,2.9l12.9,4l-5.7,2.8c-1.2,0.6-1.6,2-1,3.1c0.3,0.6,0.8,1,1.4,1.2s1.2,0.2,1.8-0.1
	l10.8-5.3c0.6-0.3,1-0.8,1.2-1.3C-495.8,1819-495.9,1818.3-496.2,1817.8z"/>
<path id="XMLID_80_" class="st11" d="M-521.2,1456.6l-5.8-10.6c-0.6-1.1-2.1-1.6-3.3-1c-1.2,0.6-1.6,2-1,3.1l3,5.5l-12.9-4
	c-1.3-0.4-2.6,0.3-3,1.5c-0.4,1.2,0.3,2.5,1.6,2.9l12.9,4l-5.7,2.8c-1.2,0.6-1.6,2-1,3.1c0.3,0.6,0.8,1,1.4,1.2
	c0.6,0.2,1.2,0.2,1.8-0.1l10.8-5.3c0.6-0.3,1-0.8,1.2-1.3C-520.8,1457.8-520.9,1457.2-521.2,1456.6z"/>
<path id="XMLID_17_" class="st4" d="M216,1960.2l-10.6,5.8c-1.1,0.6-1.6,2.1-1,3.3c0.6,1.2,2,1.6,3.1,1l5.5-3l-4,12.9
	c-0.4,1.3,0.3,2.6,1.5,3c1.2,0.4,2.5-0.3,2.9-1.6l4-12.9l2.8,5.7c0.6,1.2,2,1.6,3.1,1c0.6-0.3,1-0.8,1.2-1.4
	c0.2-0.6,0.2-1.2-0.1-1.8l-5.3-10.8c-0.3-0.6-0.8-1-1.3-1.2C217.2,1959.8,216.5,1959.9,216,1960.2z"/>
<path id="XMLID_16_" class="st4" d="M265.7,1793.1l-10.6,5.8c-1.1,0.6-1.6,2.1-1,3.3c0.6,1.2,2,1.6,3.1,1l5.5-3l-4,12.9
	c-0.4,1.3,0.3,2.6,1.5,3c1.2,0.4,2.5-0.3,2.9-1.6l4-12.9l2.8,5.7c0.6,1.2,2,1.6,3.1,1c0.6-0.3,1-0.8,1.2-1.4s0.2-1.2-0.1-1.8
	l-5.3-10.8c-0.3-0.6-0.8-1-1.3-1.2C266.9,1792.7,266.3,1792.8,265.7,1793.1z"/>
<path id="XMLID_15_" class="st4" d="M306.2,1663.3l-10.6,5.8c-1.1,0.6-1.6,2.1-1,3.3c0.6,1.2,2,1.6,3.1,1l5.5-3l-4,12.9
	c-0.4,1.3,0.3,2.6,1.5,3c1.2,0.4,2.5-0.3,2.9-1.6l4-12.9l2.8,5.7c0.6,1.2,2,1.6,3.1,1c0.6-0.3,1-0.8,1.2-1.4
	c0.2-0.6,0.2-1.2-0.1-1.8l-5.3-10.8c-0.3-0.6-0.8-1-1.3-1.2C307.4,1662.9,306.7,1663,306.2,1663.3z"/>
<g>
	<path id="XMLID_296_" class="st14" d="M-156.5,1542.1c0,0,3.1-8.6-5.8-11.4"/>
	<line id="XMLID_295_" class="st12" x1="-144.8" y1="1536.2" x2="-148.9" y2="1549.1"/>
	<path id="XMLID_294_" class="st14" d="M-156.1,1542.2c0,0,2.4-8.8,11.3-6"/>
	<line id="XMLID_297_" class="st12" x1="-162.3" y1="1530.7" x2="-166.3" y2="1543.3"/>
</g>
<g>
	<line id="XMLID_183_" class="st12" x1="-376.3" y1="1463.9" x2="-380.3" y2="1476.5"/>
	<path id="XMLID_182_" class="st14" d="M-370.5,1475.3c0,0,3.1-8.6-5.8-11.4"/>
	<line id="XMLID_181_" class="st12" x1="-358.9" y1="1469.4" x2="-363" y2="1482.3"/>
	<path id="XMLID_180_" class="st14" d="M-370.2,1475.4c0,0,2.4-8.8,11.3-6"/>
</g>
<g>
	<line id="XMLID_628_" class="st12" x1="-491.4" y1="1511.5" x2="-487.4" y2="1498.9"/>
	<path id="XMLID_627_" class="st14" d="M-497.2,1500.1c0,0-3.1,8.6,5.8,11.4"/>
	<line id="XMLID_626_" class="st12" x1="-508.8" y1="1506" x2="-504.7" y2="1493.1"/>
	<path id="XMLID_625_" class="st14" d="M-497.5,1500c0,0-2.4,8.8-11.3,6"/>
</g>
<g>
	<line id="XMLID_632_" class="st12" x1="-276.3" y1="1578.8" x2="-272.3" y2="1566.1"/>
	<path id="XMLID_631_" class="st14" d="M-282.1,1567.3c0,0-3.1,8.6,5.8,11.4"/>
	<line id="XMLID_630_" class="st12" x1="-293.8" y1="1573.2" x2="-289.7" y2="1560.3"/>
	<path id="XMLID_629_" class="st14" d="M-282.5,1567.2c0,0-2.4,8.8-11.3,6"/>
</g>
<rect x="1088.1" y="1732.4" transform="matrix(-0.2977 0.9547 -0.9547 -0.2977 3589.5237 1219.7312)" class="st11" width="516" height="395.6"/>
<text id="XMLID_261_" transform="matrix(-0.3036 0.9528 -0.9528 -0.3036 560.9568 1381.9637)"><tspan x="0" y="0" class="st4 st5" style="font-size:35.9568px;">DIPU</tspan><tspan x="81.7" y="0" class="st4 st5" style="font-size:35.9568px; letter-spacing:-2;">T</tspan><tspan x="100.6" y="0" class="st4 st5" style="font-size:35.9568px;">A</tspan><tspan x="122.8" y="0" class="st4 st5" style="font-size:35.9568px;">CIÓN</tspan></text>
<text id="XMLID_260_" transform="matrix(-0.3036 0.9528 -0.9528 -0.3036 514.3074 1372.3768)"><tspan x="0" y="0" class="st4 st5" style="font-size:35.9568px;">DE </tspan><tspan x="53.1" y="0" class="st4 st5" style="font-size:35.9568px;">M</tspan><tspan x="84" y="0" class="st4 st5" style="font-size:35.9568px;">AL</tspan><tspan x="126.5" y="0" class="st4 st5" style="font-size:35.9568px;">A</tspan><tspan x="148.7" y="0" class="st4 st5" style="font-size:35.9568px;">GA</tspan></text>
<rect id="XMLID_258_" x="479" y="1190.4" transform="matrix(0.3036 -0.9528 0.9528 0.3036 -776.0553 1424.3578)" class="st4" width="214.6" height="105.3"/>
<path id="XMLID_14_" class="st4" d="M362.1,1491.6l-10.4,5.5c-1.1,0.6-1.6,2-1,3.1c0.6,1.1,2,1.6,3.1,1l5.5-2.9l-3.9,12.4
	c-0.4,1.2,0.3,2.5,1.5,2.9c1.2,0.4,2.5-0.3,2.9-1.5l3.9-12.4l2.9,5.5c0.6,1.1,2,1.6,3.1,1c0.6-0.3,1-0.8,1.1-1.4s0.1-1.2-0.2-1.8
	l-5.5-10.4c-0.3-0.5-0.8-1-1.4-1.1C363.3,1491.3,362.7,1491.3,362.1,1491.6z"/>
<path id="XMLID_38_" class="st4" d="M400.2,1361.8l-10.4,5.5c-1.1,0.6-1.6,2-1,3.1c0.6,1.1,2,1.6,3.1,1l5.5-2.9l-3.9,12.4
	c-0.4,1.2,0.3,2.5,1.5,2.9c1.2,0.4,2.5-0.3,2.9-1.5l3.9-12.4l2.9,5.5c0.6,1.1,2,1.6,3.1,1c0.6-0.3,1-0.8,1.1-1.4
	c0.2-0.6,0.1-1.2-0.2-1.8l-5.5-10.4c-0.3-0.5-0.8-1-1.4-1.1C401.4,1361.5,400.7,1361.5,400.2,1361.8z"/>
<line id="XMLID_8_" class="st12" x1="324.2" y1="1566.7" x2="320.2" y2="1579.4"/>
<path id="XMLID_7_" class="st14" d="M336.2,1580.2c0,0,3.4-8.5-12-13.4"/>
<line id="XMLID_6_" class="st12" x1="354.3" y1="1576.3" x2="350.2" y2="1589.2"/>
<path id="XMLID_3_" class="st14" d="M336.8,1580.3c0,0,2.2-8.9,17.5-4"/>
<g id="XMLID_84_">
	<g>
		<defs>
			<polygon id="XMLID_683_" points="-372.1,1592.7 -371.1,1589.8 -371,1589.4 -353.8,1542.2 -420.8,1520.9 -438.3,1572.2 
				-438.3,1572.2 -436.9,1572.7 			"/>
		</defs>
		<clipPath id="XMLID_54_">
			<use xlink:href="#XMLID_683_"  style="overflow:visible;"/>
		</clipPath>
	</g>
	<g>
		<defs>
			<polygon id="XMLID_641_" points="-372.1,1592.7 -371.1,1589.8 -371,1589.4 -353.8,1542.2 -420.8,1520.9 -438.3,1572.2 
				-438.3,1572.2 -436.9,1572.7 			"/>
		</defs>
		<clipPath id="XMLID_55_">
			<use xlink:href="#XMLID_641_"  style="overflow:visible;"/>
		</clipPath>
		<g id="XMLID_642_" class="st26">
			<g id="XMLID_663_">
				<line id="XMLID_682_" class="st20" x1="-428.2" y1="1660.8" x2="-120.5" y2="1592"/>
				<line id="XMLID_681_" class="st20" x1="-440.7" y1="1641.6" x2="-133" y2="1572.8"/>
				<line id="XMLID_680_" class="st20" x1="-434.5" y1="1651.2" x2="-126.7" y2="1582.4"/>
				<line id="XMLID_679_" class="st20" x1="-415.8" y1="1679.9" x2="-108.1" y2="1611.1"/>
				<line id="XMLID_678_" class="st20" x1="-422" y1="1670.3" x2="-114.3" y2="1601.5"/>
				<line id="XMLID_677_" class="st20" x1="-453.2" y1="1622.4" x2="-145.4" y2="1553.7"/>
				<line id="XMLID_676_" class="st20" x1="-446.9" y1="1632" x2="-139.2" y2="1563.3"/>
				<line id="XMLID_675_" class="st20" x1="-459.4" y1="1612.8" x2="-151.6" y2="1544.1"/>
				<line id="XMLID_674_" class="st20" x1="-465.6" y1="1603.3" x2="-157.9" y2="1534.5"/>
				<line id="XMLID_673_" class="st20" x1="-471.8" y1="1593.7" x2="-164.1" y2="1524.9"/>
				<line id="XMLID_672_" class="st20" x1="-478.1" y1="1584.1" x2="-170.3" y2="1515.3"/>
				<line id="XMLID_671_" class="st20" x1="-490.5" y1="1564.9" x2="-182.8" y2="1496.2"/>
				<line id="XMLID_670_" class="st20" x1="-484.3" y1="1574.5" x2="-176.6" y2="1505.7"/>
				<line id="XMLID_669_" class="st20" x1="-496.7" y1="1555.3" x2="-189" y2="1486.6"/>
				<line id="XMLID_668_" class="st20" x1="-503" y1="1545.7" x2="-195.2" y2="1477"/>
				<line id="XMLID_667_" class="st20" x1="-509.2" y1="1536.2" x2="-201.5" y2="1467.4"/>
				<line id="XMLID_666_" class="st20" x1="-515.4" y1="1526.6" x2="-207.7" y2="1457.8"/>
				<line id="XMLID_665_" class="st20" x1="-527.9" y1="1507.4" x2="-220.1" y2="1438.6"/>
				<line id="XMLID_664_" class="st20" x1="-521.6" y1="1517" x2="-213.9" y2="1448.2"/>
			</g>
			<g id="XMLID_643_">
				<line id="XMLID_662_" class="st20" x1="-547" y1="1478.3" x2="-239.3" y2="1409.5"/>
				<line id="XMLID_661_" class="st20" x1="-559.4" y1="1459.1" x2="-251.7" y2="1390.3"/>
				<line id="XMLID_660_" class="st20" x1="-553.2" y1="1468.7" x2="-245.5" y2="1399.9"/>
				<line id="XMLID_659_" class="st20" x1="-534.6" y1="1497.4" x2="-226.8" y2="1428.6"/>
				<line id="XMLID_658_" class="st20" x1="-540.8" y1="1487.8" x2="-233.1" y2="1419"/>
				<line id="XMLID_657_" class="st20" x1="-571.9" y1="1439.9" x2="-264.2" y2="1371.2"/>
				<line id="XMLID_656_" class="st20" x1="-565.7" y1="1449.5" x2="-257.9" y2="1380.8"/>
				<line id="XMLID_655_" class="st20" x1="-578.1" y1="1430.3" x2="-270.4" y2="1361.6"/>
				<line id="XMLID_654_" class="st20" x1="-584.4" y1="1420.8" x2="-276.6" y2="1352"/>
				<line id="XMLID_653_" class="st20" x1="-590.6" y1="1411.2" x2="-282.8" y2="1342.4"/>
				<line id="XMLID_652_" class="st20" x1="-596.8" y1="1401.6" x2="-289.1" y2="1332.8"/>
				<line id="XMLID_651_" class="st20" x1="-609.3" y1="1382.4" x2="-301.5" y2="1313.7"/>
				<line id="XMLID_650_" class="st20" x1="-603" y1="1392" x2="-295.3" y2="1323.2"/>
				<line id="XMLID_649_" class="st20" x1="-615.5" y1="1372.8" x2="-307.8" y2="1304.1"/>
				<line id="XMLID_648_" class="st20" x1="-621.7" y1="1363.2" x2="-314" y2="1294.5"/>
				<line id="XMLID_647_" class="st20" x1="-627.9" y1="1353.6" x2="-320.2" y2="1284.9"/>
				<line id="XMLID_646_" class="st20" x1="-634.2" y1="1344.1" x2="-326.4" y2="1275.3"/>
				<line id="XMLID_645_" class="st20" x1="-646.6" y1="1324.9" x2="-338.9" y2="1256.1"/>
				<line id="XMLID_644_" class="st20" x1="-640.4" y1="1334.5" x2="-332.7" y2="1265.7"/>
			</g>
		</g>
		<use xlink:href="#XMLID_641_"  style="overflow:visible;fill:none;stroke:#3FA1B0;stroke-miterlimit:10;"/>
	</g>
	<g>
		<defs>
			<polygon id="XMLID_591_" points="-372.1,1592.7 -371.1,1589.8 -371,1589.4 -353.8,1542.2 -420.8,1520.9 -438.3,1572.2 
				-438.3,1572.2 -436.9,1572.7 			"/>
		</defs>
		<clipPath id="XMLID_56_">
			<use xlink:href="#XMLID_591_"  style="overflow:visible;"/>
		</clipPath>
	</g>
</g>
<g>
	<line id="XMLID_95_" class="st12" x1="-382.1" y1="1544.4" x2="-378.1" y2="1531.7"/>
	<path id="XMLID_94_" class="st14" d="M-387.9,1532.9c0,0-3.1,8.6,5.8,11.4"/>
	<line id="XMLID_93_" class="st12" x1="-399.6" y1="1538.8" x2="-395.5" y2="1525.9"/>
	<path id="XMLID_92_" class="st14" d="M-388.3,1532.8c0,0-2.4,8.8-11.3,6"/>
</g>
<g id="XMLID_102_">
	<text transform="matrix(-0.3036 0.9528 -0.9528 -0.3036 -417.0769 1604.2947)" class="st4 st5" style="font-size:24.7357px;">Cloackroom</text>
</g>
<rect x="-428.6" y="1312.1" transform="matrix(-0.2977 0.9547 -0.9547 -0.2977 845.3999 2036.4121)" class="st4" width="204.6" height="34.1"/>
<rect x="-634.8" y="1600" transform="matrix(-0.2977 0.9547 -0.9547 -0.2977 850.4415 2608.5237)" class="st4" width="201" height="34.1"/>
<g id="XMLID_13_">
	<text transform="matrix(-0.3036 0.9528 -0.9528 -0.3036 -316.8787 1265.7095)" class="st27 st5" style="font-size:24.7357px;">Mollete</text>
</g>
<rect x="479.2" y="1224.4" transform="matrix(-0.2977 0.9547 -0.9547 -0.2977 1939.7423 1055.8733)" class="st4" width="204.6" height="34.1"/>
<path class="st4" d="M327.2,140"/>
<polyline class="st13" points="325.4,251.4 347.1,186.3 313.9,175.9 "/>
<polyline class="st28" points="156.3,123.5 171.4,128.8 160.3,163.6 170.2,167.5 164.9,184.1 155,181.2 150.2,193.4 196.1,208.8 
	223.7,129.7 246.4,136.7 220.2,215.7 232.4,220 238.2,203.2 267.4,212.5 289.4,149.2 311.5,156.7 284.6,236.4 292.7,239.5 
	297.6,222.8 322.5,231.3 317.1,248.5 325.1,250.9 "/>
<polyline class="st28" points="156.4,226.3 145.8,223.1 148.5,211.8 196.6,227.4 191.9,244 213.8,250.7 218.9,236.9 228.1,240 
	202.7,316.6 226.6,323.5 251.8,248.2 257.1,249.8 252.8,262.9 276.9,270.5 281.1,258.3 287.7,260.5 263,337.2 "/>
<polygon class="st13" points="671.6,143.9 586.8,409.3 615.1,417.6 649.2,315.5 738.5,344.4 791.2,180.5 "/>
<polyline class="st28" points="155.6,123.1 143.8,158.5 114.9,149.9 109.6,166.4 140.4,176.9 136.6,188.9 105.1,179.4 100.1,195.3 
	131.2,205.9 125.6,221.2 94.8,211.6 89.2,228.3 120.1,238.6 107.8,279.4 120.9,283.6 133.9,242.9 149.4,248.2 156.4,226.3 "/>
<polygon class="st28" points="180.7,299 189.7,273.5 141.3,255.5 132.7,282.3 "/>
<polyline class="st29" points="263,337.2 287.1,344.4 305.7,283.9 323.2,289.5 "/>
<polyline class="st13" points="323.2,289.5 303.9,359.4 259.1,345.4 251.4,371.4 356,407.1 364.7,379.6 327.1,368 346.8,294.8 
	363.7,299.6 345.4,363.7 368.5,370.9 393.7,294.1 400.5,296.2 395.6,310.5 420.5,318.5 425,304.2 432.3,306.6 "/>
<polyline class="st29" points="463.8,295.1 470.2,297.3 497,218 520.8,226.1 494.8,304.1 546.8,321.6 550,311 535.9,306.3 
	543.4,284.5 555.8,288.5 569.8,248.5 584.9,253.9 572,291.5 602.9,302.3 596.1,325.1 563,314.3 560,323.8 591.8,334.6 585.9,353.4 
	555.2,343.4 552.1,353.5 581.5,364 576.1,381.8 545.5,371.7 522.7,437.2 507.8,432.1 529,367.4 520.5,364.5 527.1,344.5 537,347.8 
	541,335.7 488.3,318 482.1,337.5 460.4,330.1 465.2,315.6 457.7,312.9 431.9,390.2 406.7,382.5 431.8,306.6 "/>
<path class="st13" d="M313.9,175.9l13.3-35.8l95.9,30l-10.3,32.4l-1.4,3.2c0.1,0.2-2.4-0.4-2.4-0.4l-21.8-6.9l-21.4,62.8l9,3.1
	l5.8-16.9l24.1,7.7l-6.1,18.3l9.5,3.4l27.5-80.2l21.4,7.2l-27.2,80.7l9.1,2.7l4.9-16.1l25.1,8.2l-5.1,15.7"/>
<path id="XMLID_594_" class="st13" d="M359.1,279.4c0,0-3.2-1.2-4.3,2.2"/>
<g id="XMLID_584_">
	<line id="XMLID_593_" class="st13" x1="354.6" y1="281.7" x2="359.3" y2="283.3"/>
	<line id="XMLID_590_" class="st13" x1="356.7" y1="275.2" x2="361.5" y2="276.8"/>
	<path id="XMLID_589_" class="st13" d="M358.9,279.5c0,0-3.3-0.9-2.2-4.2"/>
	<line id="XMLID_588_" class="st13" x1="357.1" y1="290.1" x2="352.4" y2="288.6"/>
	<path id="XMLID_587_" class="st13" d="M356.7,286.5c0,0-3.2-1.2-4.3,2.2"/>
	<line id="XMLID_586_" class="st13" x1="354.5" y1="282.1" x2="359.3" y2="283.7"/>
	<path id="XMLID_585_" class="st13" d="M356.7,286.4c0,0-3.3-0.9-2.2-4.2"/>
</g>
<polygon id="registration_bg_2_" class="st15" points="469.7,278.8 464.4,295.3 438.5,286.6 443.5,270.3 "/>
<polyline id="XMLID_581_" class="st13" points="360,190.3 356.6,189.2 333.5,262.8 340.9,265.1 "/>
<polyline id="XMLID_580_" class="st13" points="346.6,266.8 353.1,268.9 376.3,194.8 373.4,193.8 "/>
<line id="XMLID_579_" class="st13" x1="341.9" y1="262.1" x2="340.9" y2="265.2"/>
<path id="XMLID_578_" class="st13" d="M343.7,265.8c0,0,1-2.8-1.9-3.7"/>
<line id="XMLID_577_" class="st13" x1="347.5" y1="263.9" x2="346.6" y2="266.8"/>
<path id="XMLID_576_" class="st13" d="M343.8,265.9c0,0,0.8-2.8,3.6-1.9"/>
<text id="XMLID_571_" transform="matrix(0.9524 0.3048 -0.3048 0.9524 447.7572 281.0289)" class="st4 st5 st6">wc</text>
<g>
	<line id="XMLID_125_" class="st12" x1="418.5" y1="311.2" x2="419.8" y2="307.1"/>
	<path id="XMLID_124_" class="st14" d="M416.6,307.5c0,0-1,2.8,1.9,3.7"/>
	<line id="XMLID_123_" class="st12" x1="412.9" y1="309.4" x2="414.2" y2="305.3"/>
	<path id="XMLID_122_" class="st14" d="M416.5,307.5c0,0-0.8,2.8-3.6,1.9"/>
</g>
<polyline class="st11" points="362.9,300.2 362.9,300.2 344.7,364.2 369,371.9 389.7,308.3 362.9,300.2 "/>
<polyline class="st11" points="409.8,299.7 400,296.6 395,310.9 421.4,319.2 425.4,305 409.3,299.6 "/>
<polyline class="st11" points="445,199 435.2,195.8 407.8,275.9 430.6,284.2 458.8,203.7 445.9,199.4 "/>
<polyline class="st11" points="671.3,142.9 671.3,142.9 618.6,306.7 738.8,344.8 792.1,179.9 671.3,142.9 "/>
<line class="st13" x1="361.3" y1="276.8" x2="365.9" y2="261.2"/>
<line class="st13" x1="354.8" y1="297" x2="356.9" y2="290.1"/>
<path id="XMLID_131_" class="st13" d="M319.2,273.9c0,0,3.2,1.2,4.3-2.2"/>
<g id="XMLID_86_">
	<line id="XMLID_130_" class="st13" x1="323.8" y1="271.5" x2="319.1" y2="270"/>
	<line id="XMLID_129_" class="st13" x1="321.7" y1="278" x2="316.9" y2="276.5"/>
	<path id="XMLID_128_" class="st13" d="M319.5,273.8c0,0,3.3,0.9,2.2,4.2"/>
	<line id="XMLID_127_" class="st13" x1="321.2" y1="263.1" x2="326" y2="264.7"/>
	<path id="XMLID_96_" class="st13" d="M321.7,266.8c0,0,3.2,1.2,4.3-2.2"/>
	<line id="XMLID_90_" class="st13" x1="323.9" y1="271.2" x2="319.1" y2="269.6"/>
	<path id="XMLID_89_" class="st13" d="M321.7,266.9c0,0,3.3,0.9,2.2,4.2"/>
</g>
<line class="st13" x1="317.1" y1="276.5" x2="314.1" y2="286.7"/>
<line class="st13" x1="325.4" y1="250.7" x2="321.4" y2="263.1"/>
<g>
	<line id="XMLID_398_" class="st30" x1="377.5" y1="309.2" x2="378.8" y2="305.1"/>
	<path id="XMLID_397_" class="st31" d="M375.6,305.5c0,0-1,2.8,1.9,3.7"/>
	<line id="XMLID_396_" class="st30" x1="371.9" y1="307.4" x2="373.2" y2="303.3"/>
	<path id="XMLID_395_" class="st31" d="M375.5,305.5c0,0-0.8,2.8-3.6,1.9"/>
</g>
<g>
	<line id="XMLID_134_" class="st30" x1="414" y1="305.7" x2="415.3" y2="301.6"/>
	<path id="XMLID_133_" class="st31" d="M412.1,302c0,0-1,2.8,1.9,3.7"/>
	<line id="XMLID_132_" class="st30" x1="408.4" y1="303.9" x2="409.7" y2="299.8"/>
	<path id="XMLID_71_" class="st31" d="M412,302c0,0-0.8,2.8-3.6,1.9"/>
</g>
<g id="XMLID_109_" class="st32">
	<text transform="matrix(-0.3036 0.9528 -0.9528 -0.3036 364.8183 333.6299)" class="st27 st5 st33">Pitufo</text>
</g>
<g id="_x38_z0jLb_1_" class="st32">
	<g>
		<g>
			<path class="st18" d="M367.9,328.9c-1.3-0.9-1.6-2.2-1.5-3.6c0.2-2.6,1-5.1,2.4-7.3c0.4-0.6,0.9-1.1,1.5-1.5
				c0.5-0.3,1.1-0.3,1.7-0.5c0.3,0.1,0.6,0.2,0.9,0.3c2.4,1.7,2.6,4.2,2.1,6.8c-0.4,2-1.3,3.7-2.8,5c-0.9,0.7-1.9,1.2-3,1.2
				c-0.1,0-0.2,0-0.3,0C368.5,329.1,368.2,329,367.9,328.9z M374.1,324c0.3-0.4,0.3-0.9,0-1.3c-0.6-0.8-1.1-1.6-1.7-2.4
				c-0.4-0.5-0.5-0.9-0.2-1.3c0.3-0.4,0.9-0.4,1.3,0.1c0.3,0.3,0.7,0.7,1,1c0-1-0.5-2.2-1.2-2.8c-1-0.9-2.3-0.9-3.3,0
				c-0.3,0.3-0.5,0.6-0.7,0.9c-1,1.6-1.6,3.4-2,5.2c-0.2,1-0.3,2.1-0.3,3.1c0,1,0.5,1.7,1.5,2.1c1.1,0.3,2,0,3-0.6
				c-0.4-0.4-0.7-0.8-1.1-1.2c-0.4-0.4-0.5-1-0.2-1.3c0.4-0.3,0.9-0.3,1.3,0.1c0.4,0.4,0.7,0.8,1.1,1.2c0.4-0.3,0.6-0.7,0.3-1.2
				c-0.6-1-1.1-2.1-2-2.9c-0.3-0.3-0.4-0.7-0.2-1c0.2-0.2,0.5-0.4,0.8-0.4c0.2,0,0.5,0.2,0.6,0.4C372.9,322.4,373.5,323.1,374.1,324
				z M373.5,325.4c0.1,0,0.1,0,0.2,0c0-0.3,0.2-0.6,0.1-0.8c-0.6-1-1.3-1.9-2-2.8c-0.1-0.1-0.3,0-0.4,0c0,0.2,0,0.3,0.1,0.5
				c0.4,0.5,0.8,0.9,1.1,1.4C372.8,324.2,373.1,324.8,373.5,325.4z M374.6,322.1c0-0.3,0.1-0.7,0-1c-0.5-0.7-1-1.3-1.6-1.9
				c-0.1-0.1-0.3,0-0.4,0c0,0.1,0,0.3,0,0.4C373.3,320.5,373.9,321.3,374.6,322.1z M372.3,327.1c-0.4-0.5-0.8-0.9-1.3-1.4
				c-0.1-0.1-0.3,0-0.5,0c0,0.1,0,0.3,0.1,0.4c0.4,0.5,0.8,0.9,1.2,1.3C372,327.4,372.1,327.3,372.3,327.1z"/>
		</g>
	</g>
</g>
<g>
	<line id="XMLID_402_" class="st30" x1="418.6" y1="276.3" x2="417.3" y2="280.4"/>
	<path id="XMLID_401_" class="st31" d="M420.5,280c0,0,1-2.8-1.9-3.7"/>
	<line id="XMLID_400_" class="st30" x1="424.2" y1="278.1" x2="422.9" y2="282.3"/>
	<path id="XMLID_399_" class="st31" d="M420.6,280.1c0,0,0.8-2.8,3.6-1.9"/>
</g>
<g>
	<line id="XMLID_150_" class="st30" x1="449.7" y1="286.1" x2="448.4" y2="290.2"/>
	<path id="XMLID_149_" class="st31" d="M451.5,289.8c0,0,1-2.8-1.9-3.7"/>
	<line id="XMLID_136_" class="st30" x1="455.3" y1="287.9" x2="454" y2="292"/>
	<path id="XMLID_135_" class="st31" d="M451.6,289.8c0,0,0.8-2.8,3.6-1.9"/>
</g>
<text id="XMLID_151_" transform="matrix(-0.3036 0.9528 -0.9528 -0.3036 436.831 218.1688)" class="st34 st5 st33">Mollete</text>
<path class="st34" d="M445.9,215c-0.8,1.8-2.4,1.9-4.1,1.8c-1.3-0.1-2.5-0.5-3.5-1.4c-0.8-0.8-1.3-1.7-1.1-2.8c0,0,0-0.1,0-0.1
	c0.1-0.2,0.1-0.5,0.2-0.7c1.1-1.6,2.7-1.8,4.5-1.6c1.1,0.1,2.2,0.5,3,1.2c0.9,0.8,1.3,1.9,1.1,3.1c0,0.1,0,0.1,0,0.2
	C446,214.9,446,214.9,445.9,215z M442.3,210.9c-0.9-0.3-1.8-0.4-2.7-0.2c-0.7,0.2-1.3,0.6-1.6,1.3c-0.4,1,0,1.8,0.6,2.5
	c0.9,1,2,1.6,3.3,1.8c0.9,0.2,1.8,0.1,2.7-0.3c0.5-0.3,0.9-0.6,1.1-1.2c0.3-0.9,0.1-1.6-0.6-2.3
	C444.3,211.7,443.3,211.2,442.3,210.9z"/>
<path class="st35" d="M441.2,215.1c0.2-1.1,0.4-2.1,0.7-3.2c0,0,0.1,0,0.1,0c0.1,0.5-0.2,2.1-0.6,3.2
	C441.3,215.1,441.2,215.1,441.2,215.1z"/>
<path class="st35" d="M443.3,215.1c0.2-0.8,0.3-1.5,0.5-2.3c0,0,0,0,0.1,0C443.9,213.1,443.6,214.3,443.3,215.1
	C443.3,215.1,443.3,215.1,443.3,215.1z"/>
<path class="st35" d="M439.5,214.1c0.2-0.8,0.3-1.5,0.5-2.3c0,0,0,0,0.1,0C440.1,212.1,439.9,213.3,439.5,214.1
	C439.5,214.1,439.5,214.1,439.5,214.1z"/>
<g id="XMLID_11_" class="st32">
	<text transform="matrix(-0.3036 0.9528 -0.9528 -0.3036 717.3668 191.9013)" class="st27 st5 st33">Campero</text>
</g>
<g class="st32">
	<g>
		<path class="st27" d="M724.3,177.8c0.1,0,0.1-0.1,0.2-0.1c0.4-0.4,0.8-0.8,1.3-1c0.4-0.1,0.8-0.2,1.1,0c0.2,0.1,0.5,0.1,0.7,0.2
			c0.5,0.3,0.8,0.7,1,1.2c0.4,0.9,0.4,1.8,0.4,2.8c-0.1,1.6-0.5,3.1-1.1,4.6c-0.5,1.2-1.1,2.2-2,3.1c-0.4,0.4-0.9,0.7-1.5,0.9
			c-0.3,0.1-0.6,0.1-0.9,0c-0.2-0.1-0.5-0.2-0.7-0.3c-0.5-0.2-0.8-0.6-1-1.1c-0.1-0.2-0.1-0.3-0.2-0.5l0,0c-0.1-0.6-0.1-1.2-0.2-1.7
			c0-0.3,0-0.6,0-0.9l0,0c0.1-0.5,0.2-1,0.3-1.5c0.2-1.1,0.6-2.2,1.1-3.3c0.4-0.8,0.9-1.6,1.5-2.3
			C724.2,177.9,724.3,177.9,724.3,177.8C724.3,177.8,724.3,177.8,724.3,177.8z M725.2,188.3c0.4-0.2,0.4-0.2,0.4-0.6
			c-0.3-2.6-0.5-5.2-0.8-7.9c0-0.1,0-0.2,0-0.3c-0.3,0.3-0.4,0.6-0.3,1c0.2,1.9,0.4,3.7,0.6,5.6C725,186.9,725.1,187.6,725.2,188.3z
			 M726.2,187.3C726.2,187.3,726.2,187.3,726.2,187.3c0.2-0.2,0.4-0.3,0.4-0.6c-0.3-2.7-0.5-5.4-0.8-8.1c0,0,0-0.1,0-0.1
			c-0.3,0.2-0.4,0.4-0.3,0.7c0.2,2,0.4,4,0.6,6C726.1,185.9,726.1,186.6,726.2,187.3z M726.4,178.1c0.3,2.6,0.5,5.2,0.8,7.8
			c0.1-0.1,0.1-0.1,0.1-0.2c0.1-0.2,0.2-0.5,0.2-0.7c-0.2-2.1-0.4-4.2-0.6-6.3c0-0.2-0.1-0.5-0.1-0.7
			C726.7,178,726.5,178,726.4,178.1z M723.8,181.4C723.8,181.4,723.8,181.4,723.8,181.4c-0.1,0.2-0.2,0.4-0.3,0.7c0,0.1,0,0.2,0,0.3
			c0.2,2,0.4,4,0.6,6c0,0.2,0.1,0.2,0.3,0.2c0.1,0,0.1,0,0.2,0C724.3,186.2,724,183.8,723.8,181.4z M727.5,178.1
			c0.2,1.8,0.4,3.6,0.5,5.3c0.1-0.1,0.1-0.2,0.1-0.3c0.1-0.5,0.2-0.9,0.1-1.4c-0.1-0.9-0.2-1.9-0.3-2.8
			C728,178.5,727.8,178.3,727.5,178.1z M723.3,187.9C723.3,187.9,723.3,187.9,723.3,187.9c-0.1-1.2-0.2-2.4-0.3-3.6c0,0,0,0-0.1,0
			C722.8,185.5,722.7,186.8,723.3,187.9z"/>
		<path class="st27" d="M721.2,188.8C721.2,188.8,721.3,188.8,721.2,188.8c-0.7,0-1.3-0.6-1.6-1.3c-0.2-0.5-0.2-1-0.2-1.5
			c0-0.9,0-1.9,0.2-2.8c0.4-1.8,1-3.5,2-5.1c0.2-0.4,0.5-0.8,0.7-1.1c0.5-0.6,1-1.1,1.9-1.1c0.3,0,0.6,0.1,1,0.1c0,0,0,0,0,0.1
			c-0.1,0-0.3,0.1-0.4,0.1c-0.3,0.1-0.5,0.2-0.8,0.4c-0.6,0.4-1.1,1-1.5,1.6c-0.4,0.5-0.7,1.1-1,1.7c0,0-0.1,0.1-0.1,0.1
			c-0.1,0.3-0.3,0.7-0.4,1c0,0,0,0.1,0,0.1c0,0-0.1,0-0.1,0.1c-0.1,0.4-0.2,0.8-0.4,1.3l0,0c-0.1,0.4-0.2,0.8-0.3,1.2
			c0,0.3-0.1,0.6-0.1,0.8c-0.1,1.1-0.1,2.2,0.3,3.3C720.7,188.2,720.9,188.5,721.2,188.8z"/>
	</g>
</g>
<polygon class="st11" points="417,191.6 318.5,161.5 313,176.2 412.2,206.9 "/>
<g>
	<line id="XMLID_76_" class="st12" x1="364.3" y1="188.7" x2="363.4" y2="191.5"/>
	<path id="XMLID_75_" class="st14" d="M366.2,192.4c0,0,1-2.8-1.9-3.7"/>
	<line id="XMLID_74_" class="st12" x1="369.9" y1="190.5" x2="369" y2="193.4"/>
	<path id="XMLID_12_" class="st14" d="M366.3,192.4c0,0,0.8-2.8,3.6-1.9"/>
</g>
</svg>
