<?xml version="1.0" encoding="utf-8"?>
<!-- Generator: Adobe Illustrator 21.0.0, SVG Export Plug-In . SVG Version: 6.00 Build 0)  -->
<svg version="1.1" id="Capa_1" xmlns="http://www.w3.org/2000/svg" xmlns:xlink="http://www.w3.org/1999/xlink" x="0px" y="0px"
	 viewBox="0 0 595.3 841.9" style="enable-background:new 0 0 595.3 841.9;" xml:space="preserve">
<style type="text/css">
	.st0{fill:#4B5864;stroke:#4B5864;stroke-miterlimit:10;}
	.st1{fill:#57646E;stroke:#4B5864;stroke-miterlimit:10;}
	.st2{fill:#FFFFFF;}
	.st3{fill:#1BD9DD;}
	.st4{fill:none;stroke:#515151;stroke-width:0.5;stroke-miterlimit:10;}
	.st5{fill:none;stroke:#515151;stroke-width:0.5;stroke-miterlimit:10;stroke-dasharray:0.3594,0.3594;}
	.st6{fill:#6EA96E;}
	.st7{fill:none;stroke:#515151;stroke-width:1.437;stroke-miterlimit:10;}
	.st8{fill:none;stroke:#515151;stroke-width:0.5;stroke-linecap:round;stroke-linejoin:round;stroke-miterlimit:10;}
	.st9{fill:none;stroke:#FFFFFF;stroke-width:0.5;stroke-miterlimit:10;}
	.st10{fill:none;stroke:#FFFFFF;stroke-width:0.5;stroke-miterlimit:10;stroke-dasharray:0.3594,0.3594;}
	.st11{font-family:'Roboto-Regular';}
	.st12{font-size:7.7601px;}
	.st13{fill:none;stroke:#515151;stroke-width:0.7351;stroke-miterlimit:10;stroke-dasharray:0.3594,0.3594;}
	.st14{font-size:9.3121px;}
	.st15{fill:none;stroke:#FFFFFF;stroke-miterlimit:10;}
	.st16{clip-path:url(#SVGID_2_);}
	.st17{fill:none;stroke:#3FA1B0;stroke-miterlimit:10;}
	.st18{clip-path:url(#SVGID_4_);}
	.st19{fill:none;stroke:#FFFFFF;stroke-width:0.3972;stroke-linecap:round;stroke-linejoin:round;stroke-miterlimit:10;}
	.st20{fill:none;stroke:#FFFFFF;stroke-width:0.45;stroke-linecap:round;stroke-linejoin:round;stroke-miterlimit:10;}
	.st21{fill:none;stroke:#FFFFFF;stroke-width:0.3884;stroke-linecap:round;stroke-linejoin:round;stroke-miterlimit:10;}
	.st22{fill:none;stroke:#FFFFFF;stroke-width:0.3984;stroke-linecap:round;stroke-linejoin:round;stroke-miterlimit:10;}
	.st23{fill:#3FA1B0;}
	.st24{font-size:12.4162px;}
	.st25{fill:#6EA96E;stroke:#515151;stroke-width:0.2738;stroke-miterlimit:10;}
	.st26{fill:none;stroke:#515151;stroke-width:0.3972;stroke-linecap:round;stroke-linejoin:round;stroke-miterlimit:10;}
	.st27{fill:none;stroke:#515151;stroke-width:0.45;stroke-linecap:round;stroke-linejoin:round;stroke-miterlimit:10;}
	.st28{fill:none;stroke:#515151;stroke-width:0.3884;stroke-linecap:round;stroke-linejoin:round;stroke-miterlimit:10;}
	.st29{fill:none;stroke:#515151;stroke-width:0.3984;stroke-linecap:round;stroke-linejoin:round;stroke-miterlimit:10;}
	.st30{clip-path:url(#SVGID_6_);}
	.st31{font-size:8.5414px;}
	.st32{fill:#4B5864;}
	.st33{fill:#57646E;}
</style>
<rect x="0.2" y="-0.1" class="st0" width="592.8" height="841"/>
<path class="st1" d="M202.8,168.6c0,0,21.4-12.7,92.3-12.2s183.4,1.1,183.4,1.1l-1.2,197.4l40.1,0.2l-0.2,38.5l-15.1-0.1l-1.4,223.3
	l-21.7-0.1l-0.6,92l14.6,76.2l-50.3,24l-59.4-0.4l-33.6-80.7l-7.5-302.3l-1.4-202.8l-32.6,0.6l-5.7-31.8l-87-0.5
	c0,0-18.6-7.7-14.9-18.5C204.3,161.7,202.8,168.6,202.8,168.6z"/>
<polyline id="XMLID_481_" class="st2" points="343.8,577.1 353.2,573.2 374.7,573.3 374.9,548.8 353.3,548.6 353.4,534.5 
	448.5,535.1 448.7,510.5 353.5,509.9 353.6,494.2 376.6,494.3 376.6,484.8 466.9,485.4 466.6,534 493.9,534.1 494.7,410.8 
	467.4,410.7 467.1,460.4 376.8,459.8 376.8,450.7 353.9,450.6 354,435.1 449.2,435.7 449.3,411.1 354.2,410.6 354.2,396.8 
	373.8,396.9 374,372.4 354.4,372.2 354.5,358.5 449.5,359.1 449.7,334.5 354.6,333.9 354.7,319.4 375,319.5 375.2,295 354.9,294.9 
	355.3,231.4 369.1,231.4 369,244.3 390.6,244.4 390.7,231.6 468.9,232.1 469,217.8 390.8,217.3 391,177.6 369.4,177.5 369.2,217.2 
	355.3,217.1 355.3,216.6 355.1,216.6 355.4,175.5 334.5,175.4 334.3,217 320.2,216.9 320.5,176.4 298.1,176.3 297.8,216.7 
	252.7,216.5 252.6,230.7 297.8,231 297.7,243.5 320.1,243.6 320.1,231.1 336,231.2 335.6,294.7 240.5,294.2 240.3,318.7 
	335.5,319.3 335.4,333.8 315,333.7 314.8,358.2 335.2,358.4 335.2,361.8 "/>
<g id="XMLID_474_">
	<path id="XMLID_478_" class="st3" d="M288.6,518c0-0.7,0.2-1.3,0.7-1.8s1-0.8,1.7-0.9c-0.3-0.6-0.3-1.3-0.1-1.9s0.7-1.2,1.3-1.5
		c0.6-0.4,1.3-0.5,1.9-0.3c0.7,0.1,1.2,0.5,1.6,1.1c0.4-0.6,0.9-0.9,1.6-1s1.4,0,2,0.4s1,0.9,1.2,1.6c0.2,0.6,0.1,1.3-0.2,1.9
		c0.7,0.1,1.3,0.4,1.8,0.9s0.7,1.1,0.7,1.8s-0.2,1.3-0.7,1.8s-1,0.8-1.7,0.9c0.2,0.6,0.3,1.3,0.1,1.9c-0.2,0.6-0.6,1.1-1.2,1.5
		s-1.3,0.5-2,0.3s-1.2-0.5-1.6-1.1c-0.4,0.6-0.9,0.9-1.6,1.1c-0.7,0.1-1.3,0-1.9-0.3c-0.6-0.4-1-0.9-1.3-1.5
		c-0.2-0.6-0.2-1.2,0.1-1.9c-0.7-0.1-1.2-0.4-1.7-0.9C288.8,519.4,288.6,518.8,288.6,518z"/>
</g>
<g id="XMLID_471_">
	<path id="XMLID_472_" class="st3" d="M265.8,357.3c0-0.7,0.2-1.3,0.7-1.8s1-0.8,1.7-0.9c-0.3-0.6-0.3-1.3-0.1-1.9s0.7-1.2,1.3-1.5
		c0.6-0.4,1.3-0.5,1.9-0.3c0.7,0.1,1.2,0.5,1.6,1.1c0.4-0.6,0.9-0.9,1.6-1s1.4,0,2,0.4s1,0.9,1.2,1.6c0.2,0.6,0.1,1.3-0.2,1.9
		c0.7,0.1,1.3,0.4,1.8,0.9s0.7,1.1,0.7,1.8c0,0.7-0.2,1.3-0.7,1.8s-1,0.8-1.7,0.9c0.2,0.6,0.3,1.3,0.1,1.9c-0.2,0.6-0.6,1.1-1.2,1.5
		s-1.3,0.5-2,0.3s-1.2-0.5-1.6-1.1c-0.4,0.6-0.9,0.9-1.6,1.1c-0.7,0.1-1.3,0-1.9-0.3c-0.6-0.4-1-0.9-1.3-1.5
		c-0.2-0.6-0.2-1.2,0.1-1.9c-0.7-0.1-1.2-0.4-1.7-0.9C266,358.7,265.8,358.1,265.8,357.3z"/>
</g>
<g id="XMLID_462_">
	<path id="XMLID_464_" class="st3" d="M245.6,331.2c0-0.7,0.2-1.3,0.7-1.8s1-0.8,1.7-0.9c-0.3-0.6-0.3-1.3-0.1-1.9s0.7-1.2,1.3-1.5
		c0.6-0.4,1.3-0.5,1.9-0.3c0.7,0.1,1.2,0.5,1.6,1.1c0.4-0.6,0.9-0.9,1.6-1c0.7-0.1,1.4,0,2,0.4c0.6,0.4,1,0.9,1.2,1.6
		c0.2,0.6,0.1,1.3-0.2,1.9c0.7,0.1,1.3,0.4,1.8,0.9s0.7,1.1,0.7,1.8c0,0.7-0.2,1.3-0.7,1.8s-1,0.8-1.7,0.9c0.2,0.6,0.3,1.3,0.1,1.9
		c-0.2,0.6-0.6,1.1-1.2,1.5s-1.3,0.5-2,0.3s-1.2-0.5-1.6-1.1c-0.4,0.6-0.9,0.9-1.6,1.1c-0.7,0.1-1.3,0-1.9-0.3
		c-0.6-0.4-1-0.9-1.3-1.5c-0.2-0.6-0.2-1.2,0.1-1.9c-0.7-0.1-1.2-0.4-1.7-0.9C245.8,332.6,245.6,331.9,245.6,331.2z"/>
</g>
<g id="XMLID_5_">
	<path id="XMLID_9_" class="st3" d="M447.4,271.7c0-0.7,0.2-1.3,0.7-1.8s1-0.8,1.7-0.9c-0.3-0.6-0.3-1.3-0.1-1.9
		c0.2-0.6,0.7-1.2,1.3-1.5c0.6-0.4,1.3-0.5,1.9-0.3c0.7,0.1,1.2,0.5,1.6,1.1c0.4-0.6,0.9-0.9,1.6-1s1.4,0,2,0.4s1,0.9,1.2,1.6
		c0.2,0.6,0.1,1.3-0.2,1.9c0.7,0.1,1.3,0.4,1.8,0.9s0.7,1.1,0.7,1.8c0,0.7-0.2,1.3-0.7,1.8s-1,0.8-1.7,0.9c0.2,0.6,0.3,1.3,0.1,1.9
		c-0.2,0.6-0.6,1.1-1.2,1.5s-1.3,0.5-2,0.3s-1.2-0.5-1.6-1.1c-0.4,0.6-0.9,0.9-1.6,1.1c-0.7,0.1-1.3,0-1.9-0.3
		c-0.6-0.4-1-0.9-1.3-1.5c-0.2-0.6-0.2-1.2,0.1-1.9c-0.7-0.1-1.2-0.4-1.7-0.9C447.7,273,447.4,272.4,447.4,271.7z"/>
</g>
<g id="XMLID_1_">
	<path id="XMLID_2_" class="st3" d="M427.2,245.5c0-0.7,0.2-1.3,0.7-1.8s1-0.8,1.7-0.9c-0.3-0.6-0.3-1.3-0.1-1.9
		c0.2-0.6,0.7-1.2,1.3-1.5c0.6-0.4,1.3-0.5,1.9-0.3c0.7,0.1,1.2,0.5,1.6,1.1c0.4-0.6,0.9-0.9,1.6-1s1.4,0,2,0.4s1,0.9,1.2,1.6
		c0.2,0.6,0.1,1.3-0.2,1.9c0.7,0.1,1.3,0.4,1.8,0.9s0.7,1.1,0.7,1.8s-0.2,1.3-0.7,1.8s-1,0.8-1.7,0.9c0.2,0.6,0.3,1.3,0.1,1.9
		c-0.2,0.6-0.6,1.1-1.2,1.5s-1.3,0.5-2,0.3s-1.2-0.5-1.6-1.1c-0.4,0.6-0.9,0.9-1.6,1.1c-0.7,0.1-1.3,0-1.9-0.3
		c-0.6-0.4-1-0.9-1.3-1.5c-0.2-0.6-0.2-1.2,0.1-1.9c-0.7-0.1-1.2-0.4-1.7-0.9C427.5,246.9,427.2,246.3,427.2,245.5z"/>
</g>
<g id="XMLID_454_">
	<path id="XMLID_455_" class="st3" d="M265.3,526.1c0-0.7,0.2-1.3,0.7-1.8s1-0.8,1.7-0.9c-0.3-0.6-0.3-1.3-0.1-1.9s0.7-1.2,1.3-1.5
		c0.6-0.4,1.3-0.5,1.9-0.3c0.7,0.1,1.2,0.5,1.6,1.1c0.4-0.6,0.9-0.9,1.6-1s1.4,0,2,0.4s1,0.9,1.2,1.6c0.2,0.6,0.1,1.3-0.2,1.9
		c0.7,0.1,1.3,0.4,1.8,0.9s0.7,1.1,0.7,1.8s-0.2,1.3-0.7,1.8s-1,0.8-1.7,0.9c0.2,0.6,0.3,1.3,0.1,1.9c-0.2,0.6-0.6,1.1-1.2,1.5
		s-1.3,0.5-2,0.3s-1.2-0.5-1.6-1.1c-0.4,0.6-0.9,0.9-1.6,1.1c-0.7,0.1-1.3,0-1.9-0.3c-0.6-0.4-1-0.9-1.3-1.5
		c-0.2-0.6-0.2-1.2,0.1-1.9c-0.7-0.1-1.2-0.4-1.7-0.9C265.5,527.4,265.3,526.8,265.3,526.1z"/>
</g>
<polyline id="XMLID_440_" class="st2" points="335.1,368.9 335,372.2 239.1,371.6 239,396.1 334.9,396.7 334.8,410.5 313.8,410.3 
	313.6,434.9 334.7,435 334.6,450.3 253.8,449.8 254,412.8 217.6,412.6 217.3,460.4 210.9,460.3 210.8,470.2 214.6,470.2 211.4,473 
	214.6,476.2 210.9,475.7 210.8,484.6 217.3,484.6 217,532.4 253.4,532.6 253.6,495.6 334.4,496.1 334.3,509.8 313.3,509.7 
	313.1,534.2 334.2,534.4 334.1,548.5 239.4,547.9 239.3,572.5 333.9,573.1 333.8,586.8 315.8,586.7 315.7,611.3 333.7,611.4 
	333.6,625.2 239,624.6 238.8,649.1 333.5,649.7 333.1,714.3 319.5,714.2 319.6,700.2 300,700.1 299.9,714.1 252.9,713.8 
	252.8,728.6 299.8,728.9 299.5,768.5 319.2,768.6 319.4,729 333,729.1 332.7,768.9 352,769 352.2,729.2 369.6,729.3 369.3,768.9 
	389,769.1 389.2,729.5 435.1,729.7 435.1,714.9 389.3,714.6 389.4,700.6 369.8,700.5 369.7,714.5 352.3,714.4 352.7,649.8 
	374.2,649.9 374.4,625.4 352.8,625.3 352.9,611.5 451.1,612.1 451.3,587.6 353.1,587 353.6,494.1 "/>
<rect id="XMLID_439_" x="395.3" y="650.5" transform="matrix(6.132343e-03 -1 1 6.132343e-03 -243.7538 1080.3774)" class="st2" width="52.7" height="24.7"/>
<rect id="XMLID_438_" x="395.3" y="650.5" transform="matrix(6.132343e-03 -1 1 6.132343e-03 -243.7538 1080.3774)" class="st4" width="52.7" height="24.7"/>
<line id="XMLID_437_" class="st4" x1="253.4" y1="470.4" x2="253.4" y2="475.2"/>
<g id="XMLID_430_">
	<line id="XMLID_436_" class="st4" x1="340.8" y1="217" x2="328.5" y2="216.9"/>
	<line id="XMLID_435_" class="st4" x1="361" y1="217.1" x2="348.8" y2="217"/>
	<line id="XMLID_434_" class="st4" x1="375.7" y1="217.2" x2="363.5" y2="217.1"/>
	<line id="XMLID_433_" class="st4" x1="396" y1="217.3" x2="383.7" y2="217.3"/>
	<line id="XMLID_432_" class="st4" x1="305.3" y1="216.8" x2="293" y2="216.7"/>
	<line id="XMLID_431_" class="st4" x1="325.5" y1="216.9" x2="313.3" y2="216.8"/>
</g>
<line id="XMLID_429_" class="st4" x1="305.2" y1="231" x2="292.9" y2="230.9"/>
<line id="XMLID_426_" class="st4" x1="325.4" y1="231.1" x2="313.2" y2="231.1"/>
<line id="XMLID_425_" class="st4" x1="335.6" y1="311.2" x2="335.6" y2="323.5"/>
<line id="XMLID_424_" class="st4" x1="335.8" y1="291" x2="335.7" y2="303.2"/>
<line id="XMLID_423_" class="st4" x1="335.4" y1="350.8" x2="335.4" y2="357.6"/>
<line id="XMLID_390_" class="st4" x1="335.5" y1="330.6" x2="335.5" y2="342.8"/>
<line id="XMLID_389_" class="st4" x1="335.3" y1="370" x2="335.2" y2="380.7"/>
<line id="XMLID_387_" class="st4" x1="335.2" y1="388.5" x2="335.1" y2="400.8"/>
<line id="XMLID_350_" class="st4" x1="334.3" y1="495.6" x2="334.1" y2="526.1"/>
<line id="XMLID_349_" class="st4" x1="336.6" y1="421.1" x2="336.4" y2="451.6"/>
<line id="XMLID_348_" class="st4" x1="334.1" y1="533.2" x2="333.9" y2="557.3"/>
<line id="XMLID_347_" class="st4" x1="333.9" y1="563.1" x2="333.7" y2="596"/>
<line id="XMLID_346_" class="st4" x1="333.6" y1="601.4" x2="333.4" y2="634.3"/>
<line id="XMLID_343_" class="st4" x1="333.4" y1="640.2" x2="333" y2="715.3"/>
<line id="XMLID_341_" class="st4" x1="253.9" y1="449.8" x2="241.7" y2="449.7"/>
<line id="XMLID_340_" class="st4" x1="253.6" y1="496.1" x2="241.4" y2="496"/>
<line id="XMLID_339_" class="st4" x1="214.6" y1="469.9" x2="210" y2="469.9"/>
<path id="XMLID_337_" class="st5" d="M211.4,473c0,0,3.2,0.1,3.2-3.1"/>
<line id="XMLID_336_" class="st4" x1="214.6" y1="476.2" x2="209.9" y2="476.2"/>
<path id="XMLID_335_" class="st5" d="M211.4,473.1c0,0,3.2-0.1,3.1,3.1"/>
<path id="XMLID_334_" class="st5" d="M341,449.9c0,0-0.2,3.7,3.6,3.7"/>
<g id="XMLID_317_">
	<line id="XMLID_329_" class="st4" x1="344.8" y1="453.8" x2="344.9" y2="448.4"/>
	<line id="XMLID_326_" class="st4" x1="337.5" y1="453.7" x2="337.5" y2="448.3"/>
	<path id="XMLID_323_" class="st5" d="M341.1,450.1c0,0,0.1,3.7-3.6,3.6"/>
	<line id="XMLID_322_" class="st4" x1="352.6" y1="453.8" x2="352.6" y2="448.5"/>
	<path id="XMLID_320_" class="st5" d="M349,450.1c0,0-0.2,3.7,3.6,3.7"/>
	<line id="XMLID_319_" class="st4" x1="345.3" y1="453.8" x2="345.3" y2="448.3"/>
	<path id="XMLID_318_" class="st5" d="M348.9,450.1c0,0,0.1,3.7-3.6,3.6"/>
</g>
<line id="XMLID_316_" class="st4" x1="345.2" y1="490.9" x2="345.2" y2="496.2"/>
<path id="XMLID_315_" class="st5" d="M348.8,494.6c0,0,0.2-3.6-3.6-3.7"/>
<line id="XMLID_314_" class="st4" x1="352.1" y1="492.2" x2="352.1" y2="497.6"/>
<path id="XMLID_313_" class="st5" d="M348.9,494.6c0,0-0.1-3.7,3.6-3.6"/>
<line id="XMLID_312_" class="st4" x1="337.5" y1="490.9" x2="337.5" y2="496.2"/>
<path id="XMLID_310_" class="st5" d="M341.1,494.6c0,0,0.2-3.6-3.6-3.7"/>
<line id="XMLID_308_" class="st4" x1="344.8" y1="490.9" x2="344.8" y2="496.3"/>
<path id="XMLID_307_" class="st5" d="M341.2,494.6c0,0-0.1-3.7,3.6-3.6"/>
<line id="XMLID_306_" class="st4" x1="357" y1="576.9" x2="352.4" y2="576.9"/>
<path id="XMLID_301_" class="st5" d="M353.8,580c0,0,3.2,0.1,3.2-3.1"/>
<line id="XMLID_300_" class="st4" x1="357" y1="583.3" x2="352.3" y2="583.2"/>
<path id="XMLID_298_" class="st5" d="M353.8,580.1c0,0,3.2-0.1,3.1,3.1"/>
<line id="XMLID_286_" class="st4" x1="331.8" y1="368.4" x2="336.3" y2="368.4"/>
<path id="XMLID_285_" class="st5" d="M334.9,365.3c0,0-3.2-0.1-3.2,3.1"/>
<line id="XMLID_284_" class="st4" x1="331.8" y1="362.1" x2="336.5" y2="362.1"/>
<path id="XMLID_283_" class="st5" d="M334.9,365.2c0,0-3.2,0.1-3.1-3.1"/>
<rect id="registration_bg_3_" x="184.7" y="463.8" transform="matrix(6.132343e-03 -1 1 6.132343e-03 -229.3304 714.4001)" class="st3" width="120" height="17.5"/>
<rect id="registration_bg_1_" x="313" y="335.8" transform="matrix(6.132363e-03 -1 1 6.132363e-03 -22.8508 668.9449)" class="st6" width="24.3" height="20.4"/>
<path id="XMLID_237_" class="st7" d="M450.8,158.4"/>
<path id="XMLID_236_" class="st7" d="M486.2,147.6"/>
<polyline id="XMLID_231_" class="st4" points="210.9,475.7 210.8,484.6 217.3,484.6 217,532.4 253.4,532.6 253.6,495.6 334.4,496.1 
	334.3,509.8 313.3,509.7 313.1,534.2 334.2,534.4 334.1,548.5 239.4,547.9 239.3,572.5 333.9,573.1 333.8,586.8 315.8,586.7 
	315.7,611.3 333.7,611.4 333.6,625.2 239,624.6 238.8,649.1 333.5,649.7 333.1,714.3 319.5,714.2 319.6,700.2 300,700.1 
	299.9,714.1 252.9,713.8 252.8,728.6 299.8,728.9 299.5,768.5 319.2,768.6 319.4,729 333,729.1 332.7,768.9 352,769 352.2,729.2 
	369.6,729.3 369.3,768.9 389,769.1 389.2,729.5 435.1,729.7 435.1,714.9 389.3,714.6 389.4,700.6 369.8,700.5 369.7,714.5 
	352.3,714.4 352.7,649.8 374.2,649.9 374.4,625.4 352.8,625.3 352.9,611.5 451.1,612.1 451.3,587.6 353.1,587 353.1,582.7 "/>
<polyline id="XMLID_230_" class="st8" points="217.4,460.3 235.7,460.4 235.9,442.6 "/>
<polyline id="XMLID_229_" class="st8" points="217.3,484.9 235.6,485 235.5,502.8 "/>
<line id="XMLID_228_" class="st4" x1="236" y1="468" x2="236" y2="461.6"/>
<line id="XMLID_227_" class="st4" x1="235.9" y1="484.7" x2="235.9" y2="478.3"/>
<line id="XMLID_226_" class="st9" x1="240.8" y1="468.4" x2="235.6" y2="468.3"/>
<path id="XMLID_225_" class="st10" d="M235.9,473.1c0,0,4.8,0.2,4.9-4.7"/>
<line id="XMLID_224_" class="st9" x1="240.7" y1="478" x2="235.5" y2="478"/>
<path id="XMLID_223_" class="st10" d="M235.9,473.3c0,0,4.8-0.2,4.8,4.8"/>
<text transform="matrix(-6.130008e-03 1 -1 -6.130008e-03 243.141 451.5179)" class="st2 st11 st12">Registration</text>
<text transform="matrix(-6.130008e-03 1 -1 -6.130008e-03 233.723 470.7609)" class="st2 st11 st12">  </text>
<polyline id="XMLID_221_" class="st4" points="253.4,480.1 253.3,483.9 336.2,484 336.2,475.7 "/>
<polyline id="XMLID_220_" class="st4" points="336.1,469.4 336.2,462 253.5,461.5 253.4,465.4 "/>
<line id="XMLID_194_" class="st4" x1="332.9" y1="475.7" x2="337.5" y2="475.7"/>
<path id="XMLID_188_" class="st5" d="M336.1,472.6c0,0-3.2-0.1-3.2,3.1"/>
<line id="XMLID_185_" class="st4" x1="332.9" y1="469.4" x2="337.6" y2="469.4"/>
<path id="XMLID_184_" class="st5" d="M336.1,472.5c0,0-3.2,0.1-3.1-3.1"/>
<polyline id="XMLID_179_" class="st4" points="335.2,368.8 335.2,372.1 239.3,371.5 239.1,396.1 335,396.7 334.9,410.4 313.9,410.3 
	313.7,434.9 334.8,435 334.7,450.3 253.9,449.8 254.1,412.8 217.7,412.5 217.4,460.3 211,460.3 210.9,470.1 "/>
<polyline id="XMLID_178_" class="st4" points="363.5,217.1 355.3,217.1 355.3,216.6 355.1,216.6 355.4,175.5 334.5,175.4 334.3,217 
	320.2,216.9 320.5,176.4 298.1,176.3 297.8,216.7 252.7,216.5 252.6,230.7 297.8,231 297.7,243.5 320.1,243.6 320.1,231.1 
	336,231.2 335.6,294.7 240.5,294.2 240.3,318.7 335.5,319.3 335.4,333.8 315,333.7 314.8,358.2 335.2,358.4 335.2,361.8 "/>
<line id="XMLID_177_" class="st4" x1="369.2" y1="217.2" x2="363.5" y2="217.1"/>
<line id="XMLID_176_" class="st4" x1="331.6" y1="343.5" x2="336.3" y2="343.5"/>
<path id="XMLID_175_" class="st13" d="M334.8,346.6c0,0-3.2,0.1-3.1-3.1"/>
<line id="XMLID_174_" class="st4" x1="331.6" y1="349.8" x2="336.2" y2="349.8"/>
<text id="XMLID_173_" transform="matrix(1 6.130008e-03 -6.130008e-03 1 317.5551 349.5874)" class="st2 st11 st14">wc</text>
<path id="XMLID_171_" class="st5" d="M334.8,346.7c0,0-3.2-0.1-3.2,3.1"/>
<g id="XMLID_138_">
	<g>
		<path id="XMLID_205_" class="st0" d="M405.6,260.5l-0.1,16.3c0,0.4,0.2,0.8,0.5,1.1c0.3,0.3,0.7,0.5,1.1,0.5s0.8-0.2,1.1-0.5
			c0.3-0.3,0.5-0.7,0.5-1.1l0.1-16.3c0.5-0.2,2.2-1.7,2.2-2.2v-6.6c0-0.2-0.1-0.4-0.2-0.6c-0.2-0.2-0.3-0.2-0.5-0.2
			s-0.4,0.1-0.6,0.2c-0.2,0.2-0.2,0.3-0.2,0.5v5.1c0,0.2-0.1,0.4-0.2,0.5c-0.2,0.2-0.3,0.2-0.6,0.2c-0.2,0-0.4-0.1-0.5-0.2
			c-0.2-0.2-0.2-0.3-0.2-0.6v-5.1c0-0.2-0.1-0.4-0.2-0.6c-0.2-0.2-0.3-0.2-0.5-0.2s-0.4,0.1-0.6,0.2c-0.2,0.2-0.2,0.3-0.2,0.5v5.1
			c0,0.2-0.1,0.4-0.2,0.5c-0.2,0.2-0.3,0.2-0.6,0.2c-0.2,0-0.4-0.1-0.6-0.2c-0.2-0.2-0.2-0.3-0.2-0.6v-5.1c0-0.2-0.1-0.4-0.2-0.6
			c-0.2-0.2-0.3-0.2-0.5-0.2s-0.4,0.1-0.6,0.2c-0.2,0.2-0.2,0.3-0.2,0.5v6.6C403,258.7,405.1,260.3,405.6,260.5L405.6,260.5z"/>
		<g id="XMLID_198_">
			<path id="XMLID_202_" class="st0" d="M407,278.4L407,278.4L407,278.4L407,278.4z"/>
			<path id="XMLID_199_" class="st0" d="M413.8,264.4h1.8l-0.1,12.7c0,0.4,0.2,0.8,0.5,1.1c0.3,0.3,0.7,0.5,1.1,0.5s0.8-0.2,1.1-0.5
				c0.3-0.3,0.5-0.7,0.5-1.1l0.2-26c0-0.2-0.1-0.4-0.2-0.6c-0.2-0.2-0.3-0.2-0.5-0.2h-0.6c-1.1,0-2,0.4-2.8,1.1
				c-0.8,0.8-1.2,1.7-1.2,2.8l-0.1,9.8c0,0.1,0,0.2,0.1,0.3C413.6,264.4,413.7,264.4,413.8,264.4L413.8,264.4z"/>
		</g>
	</g>
</g>
<text transform="matrix(1 6.130008e-03 -6.130008e-03 1 375.9863 288.8263)" class="st2 st11 st14">Catering &amp; Party </text>
<text transform="matrix(1 6.130008e-03 -6.130008e-03 1 401.4195 299.8826)" class="st2 st11 st14">Area</text>
<g id="XMLID_91_">
	<g>
		<g>
			<polygon id="XMLID_87_" class="st15" points="478.1,126.2 476.1,126.3 475.8,126.3 297.7,125.2 297.5,157.1 478.2,157.8 
				478.2,157.8 478.2,157.8 			"/>
		</g>
	</g>
</g>
<g id="XMLID_85_">
	<g>
		<g>
			<defs>
				<polygon id="SVGID_1_" points="449.3,412.3 448.3,412.3 448.1,412.3 354.6,411.5 354.5,435.7 449.4,436.3 449.4,436.3 
					449.4,435.7 				"/>
			</defs>
			<clipPath id="SVGID_2_">
				<use xlink:href="#SVGID_1_"  style="overflow:visible;"/>
			</clipPath>
			<g id="XMLID_734_" class="st16">
				<g id="XMLID_755_">
					<line id="XMLID_774_" class="st17" x1="471.2" y1="419.6" x2="416.9" y2="325.2"/>
					<line id="XMLID_773_" class="st17" x1="466.2" y1="425.7" x2="411.9" y2="331.3"/>
					<line id="XMLID_772_" class="st17" x1="468.7" y1="422.6" x2="414.4" y2="328.2"/>
					<line id="XMLID_771_" class="st17" x1="476.2" y1="413.5" x2="421.9" y2="319.1"/>
					<line id="XMLID_770_" class="st17" x1="473.7" y1="416.6" x2="419.4" y2="322.2"/>
					<line id="XMLID_769_" class="st17" x1="461.1" y1="431.7" x2="406.8" y2="337.4"/>
					<line id="XMLID_768_" class="st17" x1="463.7" y1="428.7" x2="409.4" y2="334.3"/>
					<line id="XMLID_767_" class="st17" x1="458.6" y1="434.8" x2="404.3" y2="340.4"/>
					<line id="XMLID_766_" class="st17" x1="456.1" y1="437.8" x2="401.8" y2="343.4"/>
					<line id="XMLID_765_" class="st17" x1="453.6" y1="440.9" x2="399.3" y2="346.5"/>
					<line id="XMLID_764_" class="st17" x1="451.1" y1="443.9" x2="396.8" y2="349.5"/>
					<line id="XMLID_763_" class="st17" x1="446" y1="450" x2="391.7" y2="355.6"/>
					<line id="XMLID_762_" class="st17" x1="448.5" y1="446.9" x2="394.2" y2="352.6"/>
					<line id="XMLID_761_" class="st17" x1="443.5" y1="453" x2="389.2" y2="358.6"/>
					<line id="XMLID_760_" class="st17" x1="441" y1="456" x2="386.7" y2="361.7"/>
					<line id="XMLID_759_" class="st17" x1="438.5" y1="459.1" x2="384.2" y2="364.7"/>
					<line id="XMLID_758_" class="st17" x1="435.9" y1="462.1" x2="381.6" y2="367.7"/>
					<line id="XMLID_757_" class="st17" x1="430.9" y1="468.2" x2="376.6" y2="373.8"/>
					<line id="XMLID_756_" class="st17" x1="433.4" y1="465.2" x2="379.1" y2="370.8"/>
				</g>
				<g id="XMLID_735_">
					<line id="XMLID_754_" class="st17" x1="423.3" y1="477.5" x2="369" y2="383.1"/>
					<line id="XMLID_753_" class="st17" x1="418.2" y1="483.6" x2="363.9" y2="389.2"/>
					<line id="XMLID_752_" class="st17" x1="420.7" y1="480.5" x2="366.4" y2="386.2"/>
					<line id="XMLID_751_" class="st17" x1="428.3" y1="471.4" x2="374" y2="377.1"/>
					<line id="XMLID_750_" class="st17" x1="425.8" y1="474.5" x2="371.5" y2="380.1"/>
					<line id="XMLID_749_" class="st17" x1="413.2" y1="489.6" x2="358.9" y2="395.3"/>
					<line id="XMLID_748_" class="st17" x1="415.7" y1="486.6" x2="361.4" y2="392.2"/>
					<line id="XMLID_747_" class="st17" x1="410.7" y1="492.7" x2="356.4" y2="398.3"/>
					<line id="XMLID_746_" class="st17" x1="408.1" y1="495.7" x2="353.8" y2="401.3"/>
					<line id="XMLID_745_" class="st17" x1="405.6" y1="498.8" x2="351.3" y2="404.4"/>
					<line id="XMLID_744_" class="st17" x1="403.1" y1="501.8" x2="348.8" y2="407.4"/>
					<line id="XMLID_743_" class="st17" x1="398.1" y1="507.9" x2="343.8" y2="413.5"/>
					<line id="XMLID_742_" class="st17" x1="400.6" y1="504.8" x2="346.3" y2="410.5"/>
					<line id="XMLID_741_" class="st17" x1="395.5" y1="510.9" x2="341.2" y2="416.5"/>
					<line id="XMLID_740_" class="st17" x1="393" y1="513.9" x2="338.7" y2="419.6"/>
					<line id="XMLID_739_" class="st17" x1="390.5" y1="517" x2="336.2" y2="422.6"/>
					<line id="XMLID_738_" class="st17" x1="388" y1="520" x2="333.7" y2="425.6"/>
					<line id="XMLID_737_" class="st17" x1="382.9" y1="526.1" x2="328.6" y2="431.7"/>
					<line id="XMLID_736_" class="st17" x1="385.5" y1="523.1" x2="331.2" y2="428.7"/>
				</g>
			</g>
		</g>
		<g>
			<polygon id="XMLID_733_" class="st17" points="449.3,412.3 448.3,412.3 448.1,412.3 354.6,411.5 354.5,435.7 449.4,436.3 
				449.4,436.3 449.4,435.7 			"/>
		</g>
	</g>
</g>
<g id="XMLID_369_">
	<g>
		<g>
			<defs>
				<polygon id="SVGID_3_" points="334.3,373 333.2,373 333.1,373 239.6,372.1 239.5,396.4 334.3,396.9 334.3,396.9 334.3,396.4 
									"/>
			</defs>
			<clipPath id="SVGID_4_">
				<use xlink:href="#SVGID_3_"  style="overflow:visible;"/>
			</clipPath>
			<g id="XMLID_689_" class="st18">
				<g id="XMLID_710_">
					<line id="XMLID_730_" class="st17" x1="362.5" y1="384.5" x2="308.2" y2="290.1"/>
					<line id="XMLID_729_" class="st17" x1="357.5" y1="390.6" x2="303.2" y2="296.2"/>
					<line id="XMLID_727_" class="st17" x1="360" y1="387.5" x2="305.7" y2="293.2"/>
					<line id="XMLID_726_" class="st17" x1="367.5" y1="378.4" x2="313.2" y2="284.1"/>
					<line id="XMLID_725_" class="st17" x1="365" y1="381.5" x2="310.7" y2="287.1"/>
					<line id="XMLID_724_" class="st17" x1="352.4" y1="396.7" x2="298.1" y2="302.3"/>
					<line id="XMLID_723_" class="st17" x1="354.9" y1="393.6" x2="300.6" y2="299.2"/>
					<line id="XMLID_722_" class="st17" x1="349.9" y1="399.7" x2="295.6" y2="305.3"/>
					<line id="XMLID_721_" class="st17" x1="347.4" y1="402.7" x2="293.1" y2="308.4"/>
					<line id="XMLID_720_" class="st17" x1="344.9" y1="405.8" x2="290.6" y2="311.4"/>
					<line id="XMLID_719_" class="st17" x1="342.3" y1="408.8" x2="288" y2="314.4"/>
					<line id="XMLID_718_" class="st17" x1="337.3" y1="414.9" x2="283" y2="320.5"/>
					<line id="XMLID_717_" class="st17" x1="339.8" y1="411.8" x2="285.5" y2="317.5"/>
					<line id="XMLID_716_" class="st17" x1="334.8" y1="417.9" x2="280.5" y2="323.5"/>
					<line id="XMLID_715_" class="st17" x1="332.3" y1="421" x2="278" y2="326.6"/>
					<line id="XMLID_714_" class="st17" x1="329.7" y1="424" x2="275.4" y2="329.6"/>
					<line id="XMLID_713_" class="st17" x1="327.2" y1="427" x2="272.9" y2="332.7"/>
					<line id="XMLID_712_" class="st17" x1="322.2" y1="433.1" x2="267.9" y2="338.7"/>
					<line id="XMLID_711_" class="st17" x1="324.7" y1="430.1" x2="270.4" y2="335.7"/>
				</g>
				<g id="XMLID_690_">
					<line id="XMLID_709_" class="st17" x1="314.5" y1="442.4" x2="260.2" y2="348"/>
					<line id="XMLID_708_" class="st17" x1="309.5" y1="448.5" x2="255.2" y2="354.1"/>
					<line id="XMLID_707_" class="st17" x1="312" y1="445.4" x2="257.7" y2="351.1"/>
					<line id="XMLID_706_" class="st17" x1="319.6" y1="436.3" x2="265.3" y2="342"/>
					<line id="XMLID_705_" class="st17" x1="317" y1="439.4" x2="262.7" y2="345"/>
					<line id="XMLID_704_" class="st17" x1="304.5" y1="454.6" x2="250.2" y2="360.2"/>
					<line id="XMLID_703_" class="st17" x1="307" y1="451.5" x2="252.7" y2="357.1"/>
					<line id="XMLID_702_" class="st17" x1="301.9" y1="457.6" x2="247.6" y2="363.2"/>
					<line id="XMLID_701_" class="st17" x1="299.4" y1="460.6" x2="245.1" y2="366.3"/>
					<line id="XMLID_700_" class="st17" x1="296.9" y1="463.7" x2="242.6" y2="369.3"/>
					<line id="XMLID_699_" class="st17" x1="294.4" y1="466.7" x2="240.1" y2="372.3"/>
					<line id="XMLID_698_" class="st17" x1="289.3" y1="472.8" x2="235" y2="378.4"/>
					<line id="XMLID_697_" class="st17" x1="291.9" y1="469.7" x2="237.6" y2="375.4"/>
					<line id="XMLID_696_" class="st17" x1="286.8" y1="475.8" x2="232.5" y2="381.4"/>
					<line id="XMLID_695_" class="st17" x1="284.3" y1="478.9" x2="230" y2="384.5"/>
					<line id="XMLID_694_" class="st17" x1="281.8" y1="481.9" x2="227.5" y2="387.5"/>
					<line id="XMLID_693_" class="st17" x1="279.3" y1="484.9" x2="225" y2="390.6"/>
					<line id="XMLID_692_" class="st17" x1="274.2" y1="491" x2="219.9" y2="396.6"/>
					<line id="XMLID_691_" class="st17" x1="276.7" y1="488" x2="222.4" y2="393.6"/>
				</g>
			</g>
		</g>
		<g>
			<polygon id="XMLID_688_" class="st17" points="334.3,373 333.2,373 333.1,373 239.6,372.1 239.5,396.4 334.3,396.9 334.3,396.9 
				334.3,396.4 			"/>
		</g>
	</g>
</g>
<polyline id="XMLID_69_" class="st4" points="353.1,577.2 353.2,573.2 374.7,573.3 374.9,548.8 353.3,548.6 353.4,534.5 
	448.5,535.1 448.7,510.5 353.5,509.9 353.6,494.2 376.6,494.3 376.6,484.8 466.9,485.4 466.6,534 493.9,534.1 494.7,410.8 
	467.4,410.7 467.1,460.4 376.8,459.8 376.8,450.7 353.9,450.6 354,435.1 449.2,435.7 449.3,411.1 354.2,410.6 354.2,396.8 
	373.8,396.9 374,372.4 354.4,372.2 354.5,358.5 449.5,359.1 449.7,334.5 354.6,333.9 354.7,319.4 375,319.5 375.2,295 354.9,294.9 
	355.3,231.4 369.1,231.4 369,244.3 390.6,244.4 390.7,231.6 468.9,232.1 469,217.8 390.8,217.3 391,177.6 369.4,177.5 369.2,217.2 
	"/>
<g id="XMLID_48_">
	<polyline id="XMLID_68_" class="st4" points="353.7,480.5 353.7,485.3 368.9,485.4 369,461.5 353.8,461.4 353.8,475.1 	"/>
	<g id="XMLID_57_">
		<line id="XMLID_66_" class="st4" x1="354.4" y1="368.6" x2="354.3" y2="380.9"/>
		<line id="XMLID_65_" class="st4" x1="354.5" y1="350.4" x2="354.4" y2="362.6"/>
		<line id="XMLID_64_" class="st4" x1="354.6" y1="330.9" x2="354.6" y2="343.1"/>
		<line id="XMLID_63_" class="st4" x1="354.8" y1="311.3" x2="354.7" y2="323.6"/>
		<line id="XMLID_62_" class="st4" x1="354.9" y1="291.1" x2="354.8" y2="303.3"/>
		<line id="XMLID_61_" class="st4" x1="354.3" y1="388.7" x2="354.2" y2="400.9"/>
		<line id="XMLID_59_" class="st4" x1="354.2" y1="407.8" x2="354.1" y2="420.1"/>
		<line id="XMLID_58_" class="st4" x1="354" y1="427.9" x2="354" y2="440.2"/>
	</g>
	<line id="XMLID_56_" class="st4" x1="353.6" y1="507.3" x2="353.5" y2="518.4"/>
	<line id="XMLID_55_" class="st4" x1="353.3" y1="546.5" x2="353.3" y2="557.6"/>
	<line id="XMLID_54_" class="st4" x1="353.2" y1="564.5" x2="353.1" y2="575.7"/>
	<line id="XMLID_53_" class="st4" x1="353.1" y1="584.6" x2="353" y2="595.7"/>
	<line id="XMLID_52_" class="st4" x1="353" y1="603.5" x2="352.9" y2="614.7"/>
	<line id="XMLID_51_" class="st4" x1="352.9" y1="622.9" x2="352.8" y2="634"/>
	<line id="XMLID_50_" class="st4" x1="352.7" y1="640.5" x2="352.7" y2="651.7"/>
	<line id="XMLID_49_" class="st4" x1="353.4" y1="526.6" x2="353.4" y2="537.7"/>
</g>
<g id="XMLID_20_">
	
		<ellipse id="XMLID_32_" transform="matrix(0.9999 -1.166230e-02 1.166230e-02 0.9999 -3.9321 3.468)" class="st19" cx="295.4" cy="338.9" rx="1.8" ry="1.8"/>
	<path id="XMLID_31_" class="st20" d="M291.8,348v-2.2c0-2,1.6-3.7,3.7-3.8l0,0c2,0,3.7,1.6,3.8,3.7v2.2"/>
	<path id="XMLID_30_" class="st20" d="M295.5,349.8v2.9c0,0.6-0.4,1-1,1l0,0c-0.6,0-1-0.4-1-1l-0.1-6.9"/>
	<path id="XMLID_29_" class="st20" d="M295.5,349.8v2.9c0,0.6,0.5,1,1,1l0,0c0.6,0,1-0.5,1-1l-0.1-6.9"/>
	<g id="XMLID_21_">
		
			<ellipse id="XMLID_27_" transform="matrix(0.9999 -1.166230e-02 1.166230e-02 0.9999 -3.9315 3.5834)" class="st19" cx="305.3" cy="338.9" rx="1.8" ry="1.8"/>
		<path id="XMLID_26_" class="st21" d="M307.4,343.9l1.2,2.2c0,1.8-1.4,3.2-3.2,3.3l0,0c-1.8,0-3.2-1.4-3.3-3.2l1.1-2.2"/>
		<path id="XMLID_25_" class="st20" d="M306.4,349.2v3.4c0,0.6-0.4,1-1,1l0,0c-0.6,0-1-0.4-1-1v-3.3"/>
		<line id="XMLID_24_" class="st22" x1="303.2" y1="342" x2="300.8" y2="344.8"/>
		<line id="XMLID_23_" class="st22" x1="307.5" y1="341.9" x2="310" y2="344.7"/>
	</g>
</g>
<path id="XMLID_18_" class="st2" d="M460.5,165.1l-2.9,3c-0.3,0.3-0.3,0.9,0,1.2s0.8,0.3,1.1,0l1.5-1.6v4.7c0,0.5,0.4,0.8,0.8,0.8
	s0.8-0.4,0.8-0.8v-4.7l1.5,1.6c0.3,0.3,0.8,0.3,1.1,0c0.2-0.2,0.2-0.4,0.2-0.6c0-0.2-0.1-0.4-0.2-0.6l-2.9-3
	c-0.1-0.2-0.4-0.2-0.6-0.2C460.9,164.9,460.7,165,460.5,165.1z"/>
<path id="XMLID_19_" class="st2" d="M460.5,206.2l-2.9,3c-0.3,0.3-0.3,0.9,0,1.2s0.8,0.3,1.1,0l1.5-1.6v4.7c0,0.5,0.4,0.8,0.8,0.8
	s0.8-0.4,0.8-0.8v-4.7l1.5,1.6c0.3,0.3,0.8,0.3,1.1,0c0.2-0.2,0.2-0.4,0.2-0.6c0-0.2-0.1-0.4-0.2-0.6l-2.9-3
	c-0.1-0.2-0.4-0.2-0.6-0.2C460.9,205.9,460.7,206,460.5,206.2z"/>
<path id="XMLID_60_" class="st2" d="M460.5,257.3l-2.9,3c-0.3,0.3-0.3,0.9,0,1.2c0.3,0.3,0.8,0.3,1.1,0l1.5-1.6v4.7
	c0,0.5,0.4,0.8,0.8,0.8s0.8-0.4,0.8-0.8v-4.7l1.5,1.6c0.3,0.3,0.8,0.3,1.1,0c0.2-0.2,0.2-0.4,0.2-0.6s-0.1-0.4-0.2-0.6l-2.9-3
	c-0.1-0.2-0.4-0.2-0.6-0.2C460.9,257.1,460.7,257.2,460.5,257.3z"/>
<path id="XMLID_67_" class="st2" d="M460.5,319.3l-2.9,3c-0.3,0.3-0.3,0.9,0,1.2c0.3,0.3,0.8,0.3,1.1,0l1.5-1.6v4.7
	c0,0.5,0.4,0.8,0.8,0.8s0.8-0.4,0.8-0.8v-4.7l1.5,1.6c0.3,0.3,0.8,0.3,1.1,0c0.2-0.2,0.2-0.4,0.2-0.6s-0.1-0.4-0.2-0.6l-2.9-3
	c-0.1-0.2-0.4-0.2-0.6-0.2C460.9,319,460.7,319.1,460.5,319.3z"/>
<path id="XMLID_72_" class="st2" d="M460.5,390.9l-2.9,3c-0.3,0.3-0.3,0.9,0,1.2c0.3,0.3,0.8,0.3,1.1,0l1.5-1.6v4.7
	c0,0.5,0.4,0.8,0.8,0.8s0.8-0.4,0.8-0.8v-4.7l1.5,1.6c0.3,0.3,0.8,0.3,1.1,0c0.2-0.2,0.2-0.4,0.2-0.6s-0.1-0.4-0.2-0.6l-2.9-3
	c-0.1-0.2-0.4-0.2-0.6-0.2C460.9,390.6,460.7,390.7,460.5,390.9z"/>
<path id="XMLID_78_" class="st2" d="M409.2,447.9l-3-2.9c-0.3-0.3-0.9-0.3-1.2,0c-0.3,0.3-0.3,0.8,0,1.1l1.6,1.5h-4.7
	c-0.5,0-0.8,0.4-0.8,0.8s0.4,0.8,0.8,0.8h4.7l-1.6,1.5c-0.3,0.3-0.3,0.8,0,1.1c0.2,0.2,0.4,0.2,0.6,0.2s0.4-0.1,0.6-0.2l3-2.9
	c0.2-0.1,0.2-0.4,0.2-0.6C409.4,448.3,409.3,448.1,409.2,447.9z"/>
<path id="XMLID_83_" class="st2" d="M197.7,471.2l-3-2.9c-0.3-0.3-0.9-0.3-1.2,0s-0.3,0.8,0,1.1l1.6,1.5h-4.7
	c-0.5,0-0.8,0.4-0.8,0.8s0.4,0.8,0.8,0.8h4.7l-1.6,1.5c-0.3,0.3-0.3,0.8,0,1.1c0.2,0.2,0.4,0.2,0.6,0.2c0.2,0,0.4-0.1,0.6-0.2l3-2.9
	c0.2-0.1,0.2-0.4,0.2-0.6C197.9,471.6,197.9,471.4,197.7,471.2z"/>
<path id="XMLID_79_" class="st3" d="M348.5,471.8l-3-2.9c-0.3-0.3-0.9-0.3-1.2,0c-0.3,0.3-0.3,0.8,0,1.1l1.6,1.5h-4.7
	c-0.5,0-0.8,0.4-0.8,0.8s0.4,0.8,0.8,0.8h4.7l-1.6,1.5c-0.3,0.3-0.3,0.8,0,1.1c0.2,0.2,0.4,0.2,0.6,0.2s0.4-0.1,0.6-0.2l3-2.9
	c0.2-0.1,0.2-0.4,0.2-0.6C348.7,472.1,348.6,471.9,348.5,471.8z"/>
<path id="XMLID_81_" class="st23" d="M287.6,471.8l-3-2.9c-0.3-0.3-0.9-0.3-1.2,0c-0.3,0.3-0.3,0.8,0,1.1l1.6,1.5h-4.7
	c-0.5,0-0.8,0.4-0.8,0.8s0.4,0.8,0.8,0.8h4.7l-1.6,1.5c-0.3,0.3-0.3,0.8,0,1.1c0.2,0.2,0.4,0.2,0.6,0.2s0.4-0.1,0.6-0.2l3-2.9
	c0.2-0.1,0.2-0.4,0.2-0.6C287.8,472.1,287.7,471.9,287.6,471.8z"/>
<path id="XMLID_82_" class="st3" d="M226.4,471.8l-3-2.9c-0.3-0.3-0.9-0.3-1.2,0s-0.3,0.8,0,1.1l1.6,1.5h-4.7
	c-0.5,0-0.8,0.4-0.8,0.8s0.4,0.8,0.8,0.8h4.7l-1.6,1.5c-0.3,0.3-0.3,0.8,0,1.1c0.2,0.2,0.4,0.2,0.6,0.2c0.2,0,0.4-0.1,0.6-0.2l3-2.9
	c0.2-0.1,0.2-0.4,0.2-0.6C226.6,472.1,226.6,471.9,226.4,471.8z"/>
<path id="XMLID_80_" class="st3" d="M344.1,436.2l-2.9,3c-0.3,0.3-0.3,0.9,0,1.2c0.3,0.3,0.8,0.3,1.1,0l1.5-1.6v4.7
	c0,0.5,0.4,0.8,0.8,0.8s0.8-0.4,0.8-0.8v-4.7l1.5,1.6c0.3,0.3,0.8,0.3,1.1,0c0.2-0.2,0.2-0.4,0.2-0.6s-0.1-0.4-0.2-0.6l-2.9-3
	c-0.1-0.2-0.4-0.2-0.6-0.2C344.4,436,344.2,436.1,344.1,436.2z"/>
<path id="XMLID_77_" class="st2" d="M460.5,442.8l-2.9,3c-0.3,0.3-0.3,0.9,0,1.2c0.3,0.3,0.8,0.3,1.1,0l1.5-1.6v4.7
	c0,0.5,0.4,0.8,0.8,0.8s0.8-0.4,0.8-0.8v-4.7l1.5,1.6c0.3,0.3,0.8,0.3,1.1,0c0.2-0.2,0.2-0.4,0.2-0.6s-0.1-0.4-0.2-0.6l-2.9-3
	c-0.1-0.2-0.4-0.2-0.6-0.2C460.9,442.6,460.7,442.7,460.5,442.8z"/>
<path id="XMLID_17_" class="st2" d="M434.3,141.5l3,2.9c0.3,0.3,0.9,0.3,1.2,0c0.3-0.3,0.3-0.8,0-1.1l-1.6-1.5h4.7
	c0.5,0,0.8-0.4,0.8-0.8c0-0.4-0.4-0.8-0.8-0.8h-4.7l1.6-1.5c0.3-0.3,0.3-0.8,0-1.1c-0.2-0.2-0.4-0.2-0.6-0.2s-0.4,0.1-0.6,0.2
	l-3,2.9c-0.2,0.1-0.2,0.4-0.2,0.6C434,141.1,434.1,141.3,434.3,141.5z"/>
<path id="XMLID_16_" class="st2" d="M374.1,142.3l3,2.9c0.3,0.3,0.9,0.3,1.2,0c0.3-0.3,0.3-0.8,0-1.1l-1.6-1.5h4.7
	c0.5,0,0.8-0.4,0.8-0.8c0-0.4-0.4-0.8-0.8-0.8h-4.7l1.6-1.5c0.3-0.3,0.3-0.8,0-1.1c-0.2-0.2-0.4-0.2-0.6-0.2s-0.4,0.1-0.6,0.2
	l-3,2.9c-0.2,0.1-0.2,0.4-0.2,0.6C373.8,141.9,373.9,142.1,374.1,142.3z"/>
<path id="XMLID_15_" class="st2" d="M327.1,142.3l3,2.9c0.3,0.3,0.9,0.3,1.2,0c0.3-0.3,0.3-0.8,0-1.1l-1.6-1.5h4.7
	c0.5,0,0.8-0.4,0.8-0.8c0-0.4-0.4-0.8-0.8-0.8h-4.7l1.6-1.5c0.3-0.3,0.3-0.8,0-1.1c-0.2-0.2-0.4-0.2-0.6-0.2s-0.4,0.1-0.6,0.2
	l-3,2.9c-0.2,0.1-0.2,0.4-0.2,0.6C326.9,141.9,327,142.1,327.1,142.3z"/>
<g>
	<path id="XMLID_296_" class="st5" d="M334.7,307.2c0,0-3.2-0.1-3.2,3.1"/>
	<line id="XMLID_295_" class="st4" x1="331.6" y1="304" x2="336.3" y2="304"/>
	<path id="XMLID_294_" class="st5" d="M334.7,307.1c0,0-3.2,0.1-3.1-3.1"/>
	<line id="XMLID_297_" class="st4" x1="331.6" y1="310.3" x2="336.1" y2="310.3"/>
</g>
<g>
	<line id="XMLID_183_" class="st4" x1="331.6" y1="387.7" x2="336.1" y2="387.8"/>
	<path id="XMLID_182_" class="st5" d="M334.7,384.7c0,0-3.2-0.1-3.2,3.1"/>
	<line id="XMLID_181_" class="st4" x1="331.6" y1="381.4" x2="336.3" y2="381.4"/>
	<path id="XMLID_180_" class="st5" d="M334.7,384.5c0,0-3.2,0.1-3.1-3.1"/>
</g>
<g>
	<line id="XMLID_628_" class="st4" x1="359.1" y1="420.8" x2="354.5" y2="420.8"/>
	<path id="XMLID_627_" class="st5" d="M355.9,423.9c0,0,3.2,0.1,3.2-3.1"/>
	<line id="XMLID_626_" class="st4" x1="359" y1="427.1" x2="354.4" y2="427.1"/>
	<path id="XMLID_625_" class="st5" d="M355.9,424c0,0,3.2-0.1,3.1,3.1"/>
</g>
<g>
	<line id="XMLID_632_" class="st4" x1="359.2" y1="343" x2="354.6" y2="342.9"/>
	<path id="XMLID_631_" class="st5" d="M356,346.1c0,0,3.2,0.1,3.2-3.1"/>
	<line id="XMLID_630_" class="st4" x1="359.1" y1="349.3" x2="354.4" y2="349.3"/>
	<path id="XMLID_629_" class="st5" d="M356,346.2c0,0,3.2-0.1,3.1,3.1"/>
</g>
<rect x="119.2" y="37.6" class="st3" width="178.2" height="136.6"/>
<text transform="matrix(1 6.130008e-03 -6.130008e-03 1 208.2098 87.2013)" class="st2 st11 st24">DIPU</text>
<text transform="matrix(1 6.130008e-03 -6.130008e-03 1 236.4098 87.3742)" class="st2 st11 st24">T</text>
<text transform="matrix(1 6.130008e-03 -6.130008e-03 1 242.9098 87.414)" class="st2 st11 st24">A</text>
<text transform="matrix(1 6.130008e-03 -6.130008e-03 1 250.6098 87.4612)" class="st2 st11 st24">CIÓN</text>
<text transform="matrix(1 6.130008e-03 -6.130008e-03 1 209.8448 103.5651)" class="st2 st11 st24">DE </text>
<text transform="matrix(1 6.130008e-03 -6.130008e-03 1 228.1448 103.6773)" class="st2 st11 st24">M</text>
<text transform="matrix(1 6.130008e-03 -6.130008e-03 1 238.8448 103.7429)" class="st2 st11 st24">AL</text>
<text transform="matrix(1 6.130008e-03 -6.130008e-03 1 253.5448 103.833)" class="st2 st11 st24">A</text>
<text transform="matrix(1 6.130008e-03 -6.130008e-03 1 261.1448 103.8795)" class="st2 st11 st24">GA</text>
<rect id="XMLID_258_" x="141.6" y="56.1" transform="matrix(6.132626e-03 -1 1 6.132626e-03 65.7481 252.3696)" class="st2" width="36.4" height="74.1"/>
<rect id="XMLID_257_" x="184.7" y="72.7" transform="matrix(6.132288e-03 -1 1 6.132288e-03 108.5384 269.203)" class="st25" width="9.9" height="14.5"/>
<text id="XMLID_172_" transform="matrix(1 6.130008e-03 -6.130008e-03 1 183.5141 83.3545)" class="st2 st11 st14">wc</text>
<g id="XMLID_34_">
	
		<ellipse id="XMLID_46_" transform="matrix(0.9999 -1.166230e-02 1.166230e-02 0.9999 -0.6429 2.1415)" class="st26" cx="183.3" cy="56.2" rx="1.8" ry="1.8"/>
	<path id="XMLID_45_" class="st27" d="M179.7,65.3v-2.2c0-2,1.6-3.7,3.7-3.8l0,0c2,0,3.7,1.6,3.8,3.7v2.2"/>
	<path id="XMLID_44_" class="st27" d="M183.5,67.2v2.9c0,0.6-0.4,1-1,1l0,0c-0.6,0-1-0.4-1-1l-0.1-6.9"/>
	<path id="XMLID_42_" class="st27" d="M183.5,67.2v2.9c0,0.6,0.5,1,1,1l0,0c0.6,0,1-0.5,1-1l-0.1-6.9"/>
	<g id="XMLID_35_">
		
			<ellipse id="XMLID_41_" transform="matrix(0.9999 -1.166230e-02 1.166230e-02 0.9999 -0.6423 2.2569)" class="st26" cx="193.2" cy="56.2" rx="1.8" ry="1.8"/>
		<path id="XMLID_40_" class="st28" d="M195.4,61.2l1.2,2.2c0,1.8-1.4,3.2-3.2,3.3l0,0c-1.8,0-3.2-1.4-3.3-3.2l1.1-2.2"/>
		<path id="XMLID_39_" class="st27" d="M194.4,66.6V70c0,0.6-0.4,1-1,1l0,0c-0.6,0-1-0.4-1-1v-3.3"/>
		<line id="XMLID_37_" class="st29" x1="191.2" y1="59.3" x2="188.7" y2="62.1"/>
		<line id="XMLID_36_" class="st29" x1="195.4" y1="59.3" x2="197.9" y2="62"/>
	</g>
</g>
<path id="XMLID_14_" class="st2" d="M264.8,141.5l2.9,2.9c0.3,0.3,0.8,0.3,1.1,0c0.3-0.3,0.3-0.8,0-1.1l-1.5-1.5h4.5
	c0.4,0,0.8-0.4,0.8-0.8c0-0.4-0.4-0.8-0.8-0.8h-4.5l1.5-1.5c0.3-0.3,0.3-0.8,0-1.1c-0.2-0.2-0.4-0.2-0.6-0.2s-0.4,0.1-0.6,0.2
	l-2.9,2.9c-0.2,0.1-0.2,0.4-0.2,0.6C264.6,141.1,264.6,141.3,264.8,141.5z"/>
<path id="XMLID_38_" class="st2" d="M218.1,142.3l2.9,2.9c0.3,0.3,0.8,0.3,1.1,0s0.3-0.8,0-1.1l-1.5-1.5h4.5c0.4,0,0.8-0.4,0.8-0.8
	c0-0.4-0.4-0.8-0.8-0.8h-4.5l1.5-1.5c0.3-0.3,0.3-0.8,0-1.1c-0.2-0.2-0.4-0.2-0.6-0.2c-0.2,0-0.4,0.1-0.6,0.2l-2.9,2.9
	c-0.2,0.1-0.2,0.4-0.2,0.6C217.8,141.9,217.9,142.1,218.1,142.3z"/>
<path id="XMLID_43_" class="st2" d="M173.2,141.3l2.9,2.9c0.3,0.3,0.8,0.3,1.1,0s0.3-0.8,0-1.1l-1.5-1.5h4.5c0.4,0,0.8-0.4,0.8-0.8
	c0-0.4-0.4-0.8-0.8-0.8h-4.5l1.5-1.5c0.3-0.3,0.3-0.8,0-1.1c-0.2-0.2-0.4-0.2-0.6-0.2s-0.4,0.1-0.6,0.2l-2.9,2.9
	c-0.2,0.1-0.2,0.4-0.2,0.6C172.9,140.9,173,141.1,173.2,141.3z"/>
<path id="XMLID_47_" class="st2" d="M160,125.4l-2.9,2.9c-0.3,0.3-0.3,0.8,0,1.1s0.8,0.3,1.1,0l1.5-1.5v4.5c0,0.4,0.4,0.8,0.8,0.8
	c0.4,0,0.8-0.4,0.8-0.8v-4.5l1.5,1.5c0.3,0.3,0.8,0.3,1.1,0c0.2-0.2,0.2-0.4,0.2-0.6c0-0.2-0.1-0.4-0.2-0.6l-2.9-2.9
	c-0.1-0.2-0.4-0.2-0.6-0.2C160.3,125.1,160.1,125.2,160,125.4z"/>
<line id="XMLID_8_" class="st4" x1="293.4" y1="146.2" x2="298" y2="146.3"/>
<path id="XMLID_7_" class="st5" d="M296.6,140.9c0,0-3.2-0.2-3.2,5.3"/>
<line id="XMLID_6_" class="st4" x1="293.5" y1="135.3" x2="298.2" y2="135.4"/>
<path id="XMLID_3_" class="st5" d="M296.6,140.7c0,0-3.2,0.2-3.1-5.4"/>
<line id="XMLID_33_" class="st4" x1="163.9" y1="116.2" x2="163.9" y2="111.7"/>
<path id="XMLID_28_" class="st5" d="M160.8,113.1c0,0-0.1,3.2,3.1,3.2"/>
<g id="XMLID_84_">
	<g>
		<g>
			<defs>
				<polygon id="SVGID_5_" points="373.6,373.1 372.5,373.1 372.4,373.1 355,372.3 354.9,396.5 373.6,397.1 373.6,397.1 
					373.6,396.5 				"/>
			</defs>
			<clipPath id="SVGID_6_">
				<use xlink:href="#SVGID_5_"  style="overflow:visible;"/>
			</clipPath>
			<g id="XMLID_658_" class="st30">
				<g id="XMLID_679_">
					<line id="XMLID_784_" class="st17" x1="401.8" y1="384.6" x2="347.5" y2="290.2"/>
					<line id="XMLID_783_" class="st17" x1="396.8" y1="390.7" x2="342.5" y2="296.3"/>
					<line id="XMLID_782_" class="st17" x1="399.3" y1="387.7" x2="345" y2="293.3"/>
					<line id="XMLID_781_" class="st17" x1="406.8" y1="378.6" x2="352.5" y2="284.2"/>
					<line id="XMLID_780_" class="st17" x1="404.3" y1="381.6" x2="350" y2="287.2"/>
					<line id="XMLID_779_" class="st17" x1="391.7" y1="396.8" x2="337.4" y2="302.4"/>
					<line id="XMLID_778_" class="st17" x1="394.2" y1="393.7" x2="339.9" y2="299.4"/>
					<line id="XMLID_777_" class="st17" x1="389.2" y1="399.8" x2="334.9" y2="305.4"/>
					<line id="XMLID_776_" class="st17" x1="386.7" y1="402.8" x2="332.4" y2="308.5"/>
					<line id="XMLID_732_" class="st17" x1="384.2" y1="405.9" x2="329.9" y2="311.5"/>
					<line id="XMLID_728_" class="st17" x1="381.6" y1="408.9" x2="327.3" y2="314.5"/>
					<line id="XMLID_687_" class="st17" x1="376.6" y1="415" x2="322.3" y2="320.6"/>
					<line id="XMLID_686_" class="st17" x1="379.1" y1="412" x2="324.8" y2="317.6"/>
					<line id="XMLID_685_" class="st17" x1="374.1" y1="418" x2="319.8" y2="323.7"/>
					<line id="XMLID_684_" class="st17" x1="371.6" y1="421.1" x2="317.3" y2="326.7"/>
					<line id="XMLID_683_" class="st17" x1="369" y1="424.1" x2="314.7" y2="329.7"/>
					<line id="XMLID_682_" class="st17" x1="366.5" y1="427.2" x2="312.2" y2="332.8"/>
					<line id="XMLID_681_" class="st17" x1="361.5" y1="433.2" x2="307.2" y2="338.9"/>
					<line id="XMLID_680_" class="st17" x1="364" y1="430.2" x2="309.7" y2="335.8"/>
				</g>
				<g id="XMLID_659_">
					<line id="XMLID_678_" class="st17" x1="353.8" y1="442.5" x2="299.5" y2="348.2"/>
					<line id="XMLID_677_" class="st17" x1="348.8" y1="448.6" x2="294.5" y2="354.2"/>
					<line id="XMLID_676_" class="st17" x1="351.3" y1="445.6" x2="297" y2="351.2"/>
					<line id="XMLID_675_" class="st17" x1="358.9" y1="436.5" x2="304.6" y2="342.1"/>
					<line id="XMLID_674_" class="st17" x1="356.3" y1="439.5" x2="302" y2="345.1"/>
					<line id="XMLID_673_" class="st17" x1="343.8" y1="454.7" x2="289.5" y2="360.3"/>
					<line id="XMLID_672_" class="st17" x1="346.3" y1="451.6" x2="292" y2="357.3"/>
					<line id="XMLID_671_" class="st17" x1="341.2" y1="457.7" x2="286.9" y2="363.3"/>
					<line id="XMLID_670_" class="st17" x1="338.7" y1="460.8" x2="284.4" y2="366.4"/>
					<line id="XMLID_669_" class="st17" x1="336.2" y1="463.8" x2="281.9" y2="369.4"/>
					<line id="XMLID_668_" class="st17" x1="333.7" y1="466.8" x2="279.4" y2="372.5"/>
					<line id="XMLID_667_" class="st17" x1="328.6" y1="472.9" x2="274.3" y2="378.5"/>
					<line id="XMLID_666_" class="st17" x1="331.2" y1="469.9" x2="276.9" y2="375.5"/>
					<line id="XMLID_665_" class="st17" x1="326.1" y1="475.9" x2="271.8" y2="381.6"/>
					<line id="XMLID_664_" class="st17" x1="323.6" y1="479" x2="269.3" y2="384.6"/>
					<line id="XMLID_663_" class="st17" x1="321.1" y1="482" x2="266.8" y2="387.6"/>
					<line id="XMLID_662_" class="st17" x1="318.6" y1="485.1" x2="264.3" y2="390.7"/>
					<line id="XMLID_661_" class="st17" x1="313.5" y1="491.1" x2="259.2" y2="396.8"/>
					<line id="XMLID_660_" class="st17" x1="316" y1="488.1" x2="261.7" y2="393.7"/>
				</g>
			</g>
		</g>
		<g>
			<polygon id="XMLID_657_" class="st17" points="373.6,373.1 372.5,373.1 372.4,373.1 355,372.3 354.9,396.5 373.6,397.1 
				373.6,397.1 373.6,396.5 			"/>
		</g>
	</g>
</g>
<g>
	<line id="XMLID_95_" class="st4" x1="358.7" y1="381.4" x2="354.1" y2="381.4"/>
	<path id="XMLID_94_" class="st5" d="M355.5,384.5c0,0,3.2,0.1,3.2-3.1"/>
	<line id="XMLID_93_" class="st4" x1="358.6" y1="387.7" x2="354" y2="387.7"/>
	<path id="XMLID_92_" class="st5" d="M355.5,384.6c0,0,3.2-0.1,3.1,3.1"/>
</g>
<g id="XMLID_102_">
	<text transform="matrix(1 6.130008e-03 -6.130008e-03 1 382.0432 386.7563)" class="st2 st11 st31">Cloackroom</text>
</g>
<rect x="246.7" y="379.2" class="st2" width="70.6" height="11.8"/>
<rect x="363.6" y="418.2" class="st2" width="69.4" height="11.8"/>
<g id="XMLID_109_">
	<text transform="matrix(1 6.130008e-03 -6.130008e-03 1 387.2986 426.9073)" class="st32 st11 st31">Pitufo</text>
</g>
<g id="XMLID_13_">
	<text transform="matrix(1 6.130008e-03 -6.130008e-03 1 260.1276 388.532)" class="st32 st11 st31">Mollete</text>
</g>
<rect x="124.4" y="89" class="st2" width="70.6" height="11.8"/>
<g id="XMLID_11_">
	<text transform="matrix(1 6.130008e-03 -6.130008e-03 1 146.8516 97.9292)" class="st32 st11 st31">Campero</text>
</g>
<g>
	<g>
		<path class="st32" d="M131.1,96.8c-0.1,0-0.1-0.1-0.2-0.1c-0.5-0.3-1-0.6-1.4-1.1c-0.3-0.3-0.4-0.7-0.4-1.2c0-0.3,0-0.5,0-0.8
			c0.1-0.6,0.5-1,1-1.4c0.8-0.7,1.7-1,2.7-1.2c1.7-0.4,3.4-0.5,5.1-0.3c1.3,0.1,2.6,0.4,3.8,1.1c0.6,0.3,1,0.7,1.4,1.2
			c0.2,0.3,0.3,0.6,0.3,0.9s0,0.6,0,0.8c-0.1,0.6-0.4,1-0.8,1.3c-0.2,0.1-0.3,0.2-0.5,0.4l0,0c-0.6,0.2-1.1,0.5-1.7,0.7
			c-0.3,0.1-0.6,0.2-0.9,0.3l0,0c-0.6,0.1-1.1,0.2-1.7,0.2c-1.2,0.1-2.5,0.1-3.7-0.1c-1-0.1-1.9-0.4-2.8-0.8
			C131.2,96.8,131.1,96.8,131.1,96.8L131.1,96.8z M141.5,92.5c-0.3-0.3-0.4-0.3-0.7-0.2c-2.6,1.1-5.2,2.2-7.8,3.3
			c-0.1,0-0.2,0.1-0.2,0.1c0.4,0.2,0.7,0.2,1.1,0c1.8-0.8,3.7-1.6,5.6-2.4C140.2,93.1,140.8,92.8,141.5,92.5z M140.2,91.8
			L140.2,91.8c-0.2-0.1-0.4-0.3-0.7-0.2c-2.7,1.1-5.3,2.3-8,3.4c0,0-0.1,0-0.1,0.1c0.3,0.2,0.5,0.3,0.8,0.1c2-0.9,4-1.7,5.9-2.5
			C138.8,92.4,139.5,92.1,140.2,91.8z M130.7,94.6c2.6-1.1,5.2-2.2,7.7-3.3c-0.1-0.1-0.2-0.1-0.2-0.1c-0.3,0-0.5-0.1-0.8,0
			c-2.1,0.9-4.2,1.8-6.2,2.6c-0.2,0.1-0.5,0.2-0.7,0.3C130.5,94.3,130.6,94.4,130.7,94.6z M134.9,96.2L134.9,96.2
			c0.3,0.1,0.5,0.1,0.8,0.1c0.1,0,0.2,0,0.3-0.1c2-0.8,4-1.7,6-2.5c0.2-0.1,0.2-0.2,0.2-0.4c0-0.1,0-0.1-0.1-0.2
			C139.6,94.1,137.3,95.1,134.9,96.2z M130.4,93.4c1.8-0.8,3.5-1.5,5.3-2.2c-0.1,0-0.3,0-0.4,0c-0.5,0-1,0.1-1.5,0.3
			c-0.9,0.4-1.9,0.8-2.8,1.2C130.6,92.8,130.5,93,130.4,93.4z M141.8,94.6L141.8,94.6c-1.2,0.4-2.4,1-3.6,1.5c0,0,0,0,0,0.1
			C139.5,95.9,140.8,95.6,141.8,94.6z"/>
		<path class="st32" d="M143.3,96.4c0,0,0-0.1,0.1-0.1c0.1,0.8-0.2,1.7-0.8,2.1c-0.5,0.3-1,0.5-1.5,0.7c-1,0.3-1.9,0.6-2.9,0.7
			c-2,0.2-3.9,0.1-5.8-0.4c-0.5-0.1-0.9-0.2-1.4-0.4c-0.8-0.3-1.4-0.7-1.7-1.6c-0.1-0.3-0.1-0.7-0.2-1c0,0,0,0,0.1,0
			c0.1,0.1,0.2,0.3,0.3,0.4c0.2,0.2,0.4,0.5,0.6,0.7c0.6,0.5,1.4,0.8,2.1,1c0.7,0.2,1.3,0.4,2,0.4l0.1,0.1c0.4,0,0.8,0.1,1.2,0.1
			h0.1l0.1,0.1c0.5,0,0.9,0,1.4,0l0,0c0.4,0,0.9-0.1,1.3-0.1c0.3,0,0.6-0.1,0.9-0.2c1.2-0.3,2.3-0.6,3.3-1.4
			C142.9,97.1,143.2,96.8,143.3,96.4z"/>
	</g>
	<path class="st2" d="M141.5,92.5c-0.7,0.3-1.4,0.6-2.1,0.9c-1.9,0.8-3.7,1.6-5.6,2.4c-0.4,0.2-0.7,0.2-1.1,0c0.1,0,0.2-0.1,0.2-0.1
		c2.6-1.1,5.2-2.2,7.8-3.3C141.2,92.2,141.2,92.2,141.5,92.5z"/>
	<path class="st2" d="M140.2,91.8c-0.7,0.3-1.4,0.6-2.1,0.9c-2,0.8-4,1.7-5.9,2.5c-0.3,0.1-0.6,0.1-0.8-0.1l0.1-0.1
		c2.7-1.1,5.3-2.3,8-3.4C139.8,91.5,140,91.7,140.2,91.8L140.2,91.8z"/>
	<path class="st2" d="M130.7,94.6c-0.1-0.1-0.2-0.2-0.2-0.4c0.3-0.1,0.5-0.2,0.7-0.3c2.1-0.9,4.2-1.8,6.2-2.6c0.2-0.1,0.5,0,0.8,0
		c0.1,0,0.1,0,0.2,0.1C135.8,92.4,133.3,93.5,130.7,94.6z"/>
	<path class="st2" d="M134.9,96.2c2.4-1,4.7-2,7.1-3c0,0.1,0.1,0.1,0.1,0.2c0.1,0.2,0,0.3-0.2,0.4c-2,0.8-4,1.7-6,2.5
		c-0.1,0-0.2,0.1-0.3,0.1C135.4,96.2,135.2,96.2,134.9,96.2L134.9,96.2z"/>
	<path class="st2" d="M130.4,93.4c0.1-0.4,0.3-0.6,0.6-0.8c0.9-0.4,1.9-0.8,2.8-1.2c0.5-0.2,1-0.3,1.5-0.3c0.1,0,0.2,0,0.4,0
		C133.9,91.9,132.2,92.6,130.4,93.4z"/>
	<path class="st2" d="M141.8,94.6c-1,1-2.3,1.3-3.6,1.5c0,0,0,0,0-0.1C139.4,95.6,140.6,95.1,141.8,94.6L141.8,94.6z"/>
</g>
<g id="_x38_z0jLb_1_">
	<g>
		<g>
			<path class="st33" d="M381.5,425.2c-0.5,1.6-1.8,2.3-3.3,2.7c-2.8,0.6-5.5,0.6-8.3-0.1c-0.7-0.2-1.4-0.5-2-1
				c-0.5-0.4-0.7-1-1-1.6c0-0.3,0-0.7,0-1c1-3.1,3.5-4,6.3-4.3c2.1-0.2,4.2,0.1,6,1.3c1,0.7,1.8,1.5,2.2,2.7c0,0.1,0.1,0.2,0.1,0.2
				C381.5,424.5,381.5,424.9,381.5,425.2z M374.4,420.5c-0.5-0.1-1,0-1.4,0.5c-0.7,0.8-1.3,1.7-1.9,2.5c-0.4,0.5-0.8,0.8-1.3,0.6
				c-0.5-0.2-0.6-0.8-0.4-1.4c0.2-0.5,0.5-0.9,0.7-1.3c-1,0.3-2.1,1.2-2.5,2.2c-0.6,1.4-0.2,2.6,1.1,3.4c0.4,0.2,0.8,0.4,1.2,0.5
				c2,0.5,4,0.6,6,0.4c1.1-0.1,2.2-0.4,3.3-0.7c1-0.3,1.6-1.1,1.6-2.2c0-1.2-0.6-2.1-1.6-2.8c-0.3,0.5-0.6,1-0.9,1.5
				c-0.3,0.6-0.8,0.8-1.3,0.6c-0.5-0.3-0.6-0.8-0.3-1.4c0.3-0.5,0.6-1,0.9-1.5c-0.5-0.3-0.9-0.4-1.3,0.1c-0.9,0.9-1.8,1.8-2.3,2.9
				c-0.2,0.4-0.6,0.6-1,0.5c-0.3-0.1-0.6-0.4-0.7-0.7c-0.1-0.2,0-0.5,0.2-0.7C373.1,422.3,373.8,421.4,374.4,420.5z M376,420.7
				c0-0.1,0-0.1,0-0.2c-0.3,0-0.7,0-0.8,0.2c-0.8,1-1.5,1.9-2.2,3c-0.1,0.1,0.1,0.3,0.1,0.5c0.2-0.1,0.4-0.1,0.4-0.2
				c0.4-0.5,0.7-1.1,1.1-1.6C375.1,421.7,375.6,421.2,376,420.7z M372.4,420.5c-0.4,0.1-0.8,0.1-1,0.3c-0.6,0.7-1,1.5-1.5,2.2
				c0,0.1,0.1,0.3,0.1,0.4c0.1-0.1,0.3-0.1,0.4-0.2C371.1,422.4,371.7,421.5,372.4,420.5z M378.2,421.3c-0.3,0.6-0.7,1.2-1,1.7
				c-0.1,0.1,0.1,0.3,0.2,0.5c0.1-0.1,0.3-0.1,0.4-0.2c0.3-0.5,0.7-1.1,1-1.7C378.6,421.5,378.5,421.4,378.2,421.3z"/>
		</g>
	</g>
</g>
<path class="st32" d="M253.9,380.2c2.1,0.3,2.8,1.9,3.2,3.6c0.3,1.3,0.3,2.7-0.3,4c-0.5,1.1-1.3,1.8-2.6,2.1c0,0-0.1,0-0.1,0.1
	c-0.3,0-0.5,0-0.8,0c-2-0.6-2.7-2.2-3.1-4.1c-0.2-1.2-0.2-2.4,0.3-3.5c0.6-1.2,1.5-2,2.9-2.1c0.1,0,0.1,0,0.2-0.1
	C253.8,380.2,253.9,380.2,253.9,380.2z M250.9,385.3c0,1,0.2,2,0.7,2.8c0.4,0.7,1,1.1,1.9,1.2c1.1,0.1,1.8-0.5,2.4-1.4
	c0.7-1.2,1-2.5,0.8-3.9c-0.1-1-0.5-1.9-1.2-2.6c-0.4-0.5-1-0.8-1.6-0.8c-1-0.1-1.7,0.5-2.2,1.3C251.1,382.9,250.9,384.1,250.9,385.3
	z"/>
<path class="st32" d="M255.6,385c-1.2,0.1-2.3,0.2-3.5,0.4v-0.1c0.4-0.3,2.2-0.5,3.5-0.4V385z"/>
<path class="st32" d="M254.9,382.9c-0.8,0.1-1.7,0.2-2.5,0.3c0,0,0,0,0-0.1C252.7,382.9,254,382.8,254.9,382.9L254.9,382.9z"/>
<path class="st32" d="M255,387.1c-0.8,0.1-1.7,0.2-2.5,0.3c0,0,0,0,0-0.1C252.8,387.1,254.1,387,255,387.1L255,387.1z"/>
</svg>
